<svg xmlns="http://www.w3.org/2000/svg" xmlns:xlink="http://www.w3.org/1999/xlink" width="500" zoomAndPan="magnify" viewBox="0 0 375 374.999991" height="500" preserveAspectRatio="xMidYMid meet" version="1.0"><defs><clipPath id="9859a169d8"><path d="M 31 0 L 344.484375 0 L 344.484375 375 L 31 375 Z M 31 0 " clip-rule="nonzero"/></clipPath></defs><g clip-path="url(#9859a169d8)"><path fill="#f3ac41" d="M 338.6875 360.363281 C 336.390625 358.308594 333.855469 356.917969 331.136719 355.769531 C 330.957031 355.222656 330.59375 354.738281 330.109375 354.257812 C 328.660156 352.683594 326.183594 351.71875 324.371094 350.691406 C 322.921875 349.902344 321.835938 349.117188 320.566406 349.117188 C 320.386719 348.753906 320.144531 348.332031 319.78125 347.910156 C 318.695312 346.699219 317.304688 345.792969 316.277344 344.523438 C 315.734375 343.917969 314.828125 342.527344 313.863281 342.167969 C 313.5625 341.5625 313.257812 340.898438 313.015625 340.292969 C 312.835938 339.808594 312.535156 339.265625 312.292969 338.71875 C 313.199219 338.238281 314.105469 337.632812 314.527344 336.90625 C 315.796875 334.671875 313.5 332.734375 312.109375 331.222656 C 311.085938 330.136719 310.058594 329.046875 309.089844 327.960938 C 308.367188 325.542969 307.277344 323.304688 305.828125 321.25 C 304.019531 318.589844 301.84375 316.230469 300.394531 313.269531 C 298.582031 309.582031 296.527344 306.015625 294.171875 302.628906 C 292.964844 300.878906 291.515625 299.304688 290.367188 297.492188 C 289.28125 295.679688 288.554688 293.683594 287.347656 291.992188 C 286.199219 290.359375 284.691406 289.210938 283.363281 287.820312 C 282.335938 286.851562 281.550781 285.765625 280.460938 284.980469 C 280.222656 284.3125 279.917969 283.589844 279.738281 283.042969 C 279.4375 282.136719 279.011719 281.59375 278.410156 280.929688 C 277.5625 280.023438 276.414062 278.753906 275.148438 278.390625 C 274.664062 276.214844 273.515625 274.339844 271.945312 272.527344 C 270.917969 271.378906 269.710938 270.53125 268.925781 269.199219 C 268.082031 267.6875 267.417969 266.117188 266.691406 264.546875 C 265.0625 260.917969 263.851562 257.171875 262.464844 253.484375 C 261.074219 249.734375 259.503906 246.167969 257.933594 242.480469 C 256.726562 239.761719 255.09375 236.558594 253.042969 234.257812 C 252.921875 233.292969 252.738281 232.324219 252.5 231.660156 C 252.195312 230.8125 251.773438 230.148438 251.351562 229.421875 C 251.167969 229.121094 250.867188 228.699219 250.566406 228.273438 C 250.503906 227.1875 250.503906 226.097656 250.445312 225.070312 C 250.265625 221.988281 248.574219 219.085938 247.425781 216.246094 C 246.761719 214.550781 246.277344 213.101562 245.792969 211.347656 C 245.433594 209.957031 244.886719 208.507812 244.527344 207.117188 C 245.855469 206.511719 247.0625 205.605469 247.425781 204.214844 C 247.726562 203.125 247.304688 201.917969 247.003906 200.828125 C 246.578125 199.378906 246.21875 197.867188 245.914062 196.355469 C 245.25 192.789062 244.765625 189.164062 244.585938 185.535156 C 244.40625 180.15625 243.316406 174.957031 241.867188 169.816406 C 241.867188 169.09375 241.746094 168.304688 241.6875 167.582031 C 241.566406 165.707031 241.6875 163.832031 241.6875 161.960938 C 241.6875 153.738281 241.566406 145.515625 240.960938 137.355469 C 240.660156 132.941406 240.238281 128.410156 239.574219 124.054688 C 239.269531 122.0625 238.96875 120.066406 238.726562 118.011719 C 238.546875 116.4375 238.003906 115.046875 237.519531 113.535156 C 237.640625 113.476562 237.699219 113.355469 237.820312 113.296875 C 238.726562 112.386719 239.574219 111.421875 240.417969 110.515625 C 241.144531 109.730469 242.472656 109.246094 243.136719 108.398438 C 243.863281 107.429688 243.078125 105.496094 242.835938 104.46875 C 242.714844 104.046875 242.652344 103.5625 242.53125 103.140625 C 243.5 102.414062 244.648438 101.808594 245.492188 101.203125 C 246.941406 100.175781 275.933594 81.316406 282.09375 76.296875 C 283.601562 75.089844 284.8125 73.699219 286.078125 72.128906 C 291.335938 68.378906 312.714844 42.6875 318.390625 35.796875 C 321.472656 34.34375 323.464844 31.503906 324.128906 28.117188 C 324.25 27.636719 324.371094 26.96875 324.433594 26.304688 C 325.519531 26.003906 326.667969 25.519531 327.574219 24.914062 C 329.203125 23.828125 328.660156 22.679688 328.78125 21.046875 C 329.144531 20.742188 329.445312 20.378906 329.6875 20.078125 C 330.652344 18.808594 330.714844 17.722656 330.230469 16.269531 C 330.773438 15.664062 331.136719 15.0625 330.957031 14.214844 C 330.773438 13.1875 330.171875 12.160156 329.746094 11.253906 C 329.386719 10.40625 329.082031 9.078125 328.238281 8.59375 C 326.910156 7.867188 324.191406 8.894531 322.5 9.316406 C 322.558594 8.59375 322.621094 7.808594 322.621094 7.203125 C 322.679688 6.476562 322.558594 5.570312 322.621094 4.84375 C 323.828125 4.179688 326.304688 3.574219 326.910156 3.332031 C 328.054688 2.96875 329.867188 2.003906 329.144531 0.429688 C 326.789062 0.25 323.769531 0.371094 321.773438 1.820312 C 321.230469 1.035156 320.203125 0.734375 319.175781 1.21875 C 318.273438 1.640625 318.03125 2.789062 317.96875 3.816406 C 315.191406 5.507812 315.855469 9.984375 315.070312 12.644531 C 314.585938 14.273438 313.5625 15.484375 313.378906 17.238281 C 313.199219 18.992188 313.320312 20.863281 313.320312 22.679688 C 313.320312 23.949219 312.835938 25.035156 312.535156 26.246094 C 309.152344 29.507812 300.453125 37.429688 290.066406 44.621094 C 287.410156 46.011719 284.75 47.402344 282.214844 48.972656 C 279.617188 50.605469 277.082031 52.238281 274.484375 53.871094 C 271.101562 55.988281 267.960938 59.191406 265.484375 62.394531 C 264.398438 63.785156 263.613281 65.417969 262.523438 66.867188 C 261.378906 68.378906 259.988281 69.648438 258.539062 70.859375 C 254.914062 73.941406 250.988281 76.359375 246.820312 78.65625 C 245.070312 79.625 243.378906 80.710938 241.625 81.679688 C 240.296875 82.40625 238.789062 82.765625 237.339844 83.3125 C 236.613281 82.40625 235.648438 81.800781 234.378906 81.980469 C 234.136719 82.042969 233.957031 82.101562 233.714844 82.164062 C 233.351562 81.136719 232.871094 79.867188 232.144531 78.292969 C 232.085938 77.808594 232.085938 77.328125 232.023438 76.84375 C 231.84375 75.996094 231.539062 75.148438 231.117188 74.304688 C 231.179688 73.699219 231.238281 73.09375 231.296875 72.371094 C 231.417969 71.160156 231.238281 69.953125 230.9375 68.683594 C 231.359375 68.257812 231.84375 67.773438 232.386719 67.230469 C 232.507812 67.351562 232.628906 67.472656 232.75 67.652344 C 233.230469 68.683594 233.59375 69.648438 233.894531 70.554688 C 235.105469 74.363281 235.042969 76.902344 235.226562 76.902344 C 235.226562 76.902344 235.585938 74.304688 234.441406 70.375 C 234.257812 69.832031 234.078125 69.226562 233.894531 68.621094 C 235.464844 69.769531 236.855469 69.710938 236.796875 69.648438 C 236.976562 69.347656 234.800781 68.984375 233.171875 66.445312 C 233.773438 65.597656 234.199219 64.570312 234.378906 63.421875 C 234.5 63.542969 234.621094 63.605469 234.742188 63.726562 C 235.042969 63.964844 235.34375 64.269531 235.585938 64.511719 C 236.371094 66.566406 236.3125 67.894531 236.433594 67.894531 C 236.492188 67.957031 236.613281 66.867188 236.25 65.175781 C 236.554688 65.476562 236.796875 65.839844 237.097656 66.144531 C 237.277344 67.292969 237.460938 68.378906 237.519531 69.285156 C 237.941406 75.089844 237.761719 78.71875 237.941406 78.71875 C 238.003906 78.71875 238.425781 75.089844 238.125 69.226562 C 238.0625 68.621094 238.003906 67.957031 237.941406 67.230469 C 238.847656 68.621094 239.511719 70.070312 239.9375 71.402344 C 241.082031 76.78125 239.453125 80.167969 239.753906 80.167969 C 239.632812 80.226562 241.566406 76.902344 240.480469 71.222656 C 239.9375 69.40625 239.089844 67.472656 237.699219 65.660156 C 237.339844 63.421875 236.613281 60.882812 235.464844 58.527344 C 236.011719 56.773438 236.070312 54.65625 235.226562 52.660156 C 234.742188 51.453125 234.078125 50.304688 233.230469 49.277344 C 232.988281 47.703125 231.964844 45.890625 230.453125 44.136719 C 228.519531 41.417969 224.230469 41.175781 220.546875 41.839844 C 220.425781 41.78125 220.367188 41.71875 220.246094 41.660156 C 219.640625 41.117188 218.976562 40.570312 218.191406 39.96875 C 216.140625 38.578125 213.238281 38.457031 210.339844 39 C 209.375 39.058594 208.40625 39.179688 207.382812 39.484375 C 206.292969 39.058594 205.148438 38.820312 204.121094 38.636719 C 202.910156 36.640625 201.582031 34.949219 199.953125 34.101562 C 196.992188 32.472656 194.820312 33.316406 194.878906 33.316406 C 194.820312 33.621094 196.933594 33.136719 199.46875 34.828125 C 200.675781 35.554688 201.703125 36.824219 202.609375 38.394531 C 202.367188 38.394531 202.066406 38.335938 201.824219 38.335938 C 197.839844 35.3125 192.945312 34.527344 189.746094 34.285156 C 189.082031 34.222656 188.417969 34.285156 187.8125 34.285156 C 186.785156 33.679688 185.699219 33.136719 184.613281 32.953125 C 181.53125 32.351562 178.933594 32.53125 177.304688 33.558594 C 177.242188 33.621094 177.183594 33.621094 177.183594 33.679688 C 176.335938 33.4375 175.429688 33.316406 174.523438 33.558594 C 173.195312 33.921875 172.472656 34.890625 172.046875 35.917969 C 170.839844 36.582031 170.117188 37.851562 169.933594 38.9375 C 169.875 39.484375 169.875 40.027344 169.933594 40.511719 C 168.121094 41.417969 166.613281 42.6875 165.527344 43.777344 C 164.378906 44.078125 163.289062 44.5 162.503906 45.347656 C 161.296875 46.859375 161.960938 48.429688 161.960938 49.277344 C 161.960938 49.277344 161.960938 49.335938 161.960938 49.335938 C 161.960938 49.335938 161.960938 49.335938 161.960938 49.398438 C 160.816406 50.121094 159.847656 51.03125 159.0625 52.117188 C 157.976562 53.75 157.554688 55.503906 157.492188 57.136719 C 155.5 61.003906 154.894531 65.234375 156.042969 68.320312 C 155.378906 69.589844 155.136719 70.917969 155.378906 72.066406 C 155.863281 76.179688 157.25 78.535156 157.734375 79.199219 C 157.976562 81.136719 158.578125 82.828125 159.246094 83.976562 C 160.269531 86.03125 161.296875 87.480469 162.023438 88.269531 C 161.71875 88.570312 161.359375 88.75 160.933594 88.8125 C 156.042969 88.328125 154.050781 84.035156 153.867188 84.640625 C 153.808594 84.703125 154.171875 85.546875 155.199219 86.757812 C 156.285156 87.785156 157.792969 90.019531 161.117188 90.019531 C 161.660156 89.839844 162.144531 89.660156 162.566406 89.355469 C 162.566406 89.539062 162.566406 89.71875 162.566406 89.898438 C 162.566406 90.261719 162.566406 90.625 162.566406 90.929688 C 161.902344 91.230469 161.175781 91.410156 160.453125 91.59375 C 159.363281 91.167969 158.339844 90.867188 157.25 90.746094 C 151.632812 90.203125 148.492188 91.53125 148.433594 91.53125 C 148.433594 91.957031 151.875 91.109375 157.007812 91.894531 C 157.25 91.894531 157.492188 91.957031 157.734375 92.015625 C 157.492188 92.078125 157.3125 92.078125 157.128906 92.136719 C 153.808594 92.5 151.03125 93.042969 149.460938 94.191406 C 148.796875 94.617188 148.371094 95.039062 148.070312 95.460938 C 146.257812 94.917969 144.445312 94.253906 142.636719 93.648438 C 139.976562 92.742188 137.257812 92.136719 134.542969 91.410156 C 131.882812 90.6875 129.105469 90.082031 126.449219 89.296875 C 124.816406 88.8125 123.308594 88.148438 121.738281 87.480469 C 120.46875 86.273438 119.261719 85.0625 117.75 84.097656 C 116.058594 83.007812 114.367188 82.042969 112.617188 81.074219 C 108.75 78.898438 104.585938 78.113281 100.355469 76.964844 C 96.25 75.875 92.324219 74.363281 88.277344 73.09375 C 83.929688 71.703125 79.640625 70.191406 75.230469 69.105469 C 73.054688 68.5625 70.941406 67.835938 68.949219 66.867188 C 67.863281 66.324219 66.714844 65.902344 65.628906 65.355469 C 65.507812 63.421875 65.085938 62.09375 63.753906 60.277344 C 62.425781 58.40625 60.855469 56.894531 59.042969 55.746094 C 57.050781 54.476562 55.179688 53.386719 53.125 52.359375 C 52.160156 51.875 51.191406 51.332031 50.105469 51.695312 C 49.078125 52.058594 48.355469 53.144531 47.386719 53.75 C 46.785156 54.113281 45.273438 54.414062 45.03125 55.199219 C 44.851562 55.804688 45.273438 56.230469 45.757812 56.53125 C 45.03125 57.4375 44.851562 58.828125 45.515625 59.675781 C 44.730469 60.039062 43.945312 60.519531 43.644531 61.304688 C 43.21875 62.335938 43.824219 63.300781 44.667969 63.964844 C 43.761719 64.632812 42.917969 65.71875 42.976562 66.746094 C 43.039062 67.773438 43.882812 68.5 44.910156 68.921875 C 44.367188 69.710938 44.003906 70.675781 44.367188 71.582031 C 44.972656 73.035156 46.785156 74.242188 48.050781 75.089844 C 51.554688 77.449219 54.636719 77.507812 58.257812 77.328125 C 59.707031 77.265625 60.675781 77.207031 61.824219 77.085938 C 62.546875 77.566406 63.273438 78.050781 63.996094 78.476562 C 65.75 79.441406 67.5 80.226562 69.191406 81.253906 C 73.296875 83.734375 77.707031 85.546875 81.933594 87.785156 C 90.691406 92.558594 99.269531 97.820312 108.691406 101.144531 C 112.4375 102.472656 116.363281 103.804688 120.347656 104.289062 C 123.972656 106.042969 127.476562 108.21875 131.160156 109.847656 C 136.957031 112.449219 142.753906 115.410156 148.917969 117.042969 C 150.667969 117.527344 152.660156 118.191406 154.53125 118.554688 C 154.53125 119.339844 154.53125 120.125 154.894531 120.792969 C 155.558594 121.757812 156.890625 121.699219 157.855469 122.183594 C 159.910156 123.210938 161.417969 124.960938 162.867188 126.65625 C 163.351562 127.199219 163.894531 127.804688 164.5 128.347656 C 164.679688 129.011719 164.800781 129.675781 164.921875 130.222656 C 165.164062 131.429688 165.40625 132.640625 165.886719 133.789062 C 166.371094 135.058594 166.734375 136.386719 167.15625 137.65625 C 167.640625 139.230469 168.484375 140.679688 169.148438 142.191406 C 170.539062 145.394531 171.445312 148.71875 173.015625 151.804688 C 174.34375 154.464844 175.371094 157.183594 176.820312 159.78125 C 177.304688 160.628906 177.90625 161.355469 178.390625 162.199219 C 178.390625 165.707031 178.390625 169.214844 177.847656 172.660156 C 177.542969 174.414062 177.183594 176.042969 177 177.796875 C 176.820312 179.371094 176.457031 180.941406 176.878906 182.453125 C 177.0625 183.058594 177.363281 183.78125 177.785156 184.445312 C 176.457031 187.289062 174.34375 189.828125 172.53125 192.304688 C 171.6875 193.453125 170.539062 194.542969 169.875 195.871094 C 169.148438 197.261719 169.691406 198.351562 170.539062 199.5 C 170.839844 199.921875 171.144531 200.347656 171.445312 200.769531 C 170.117188 201.132812 168.90625 201.796875 168.0625 203.066406 C 167.335938 204.15625 166.550781 205.90625 166.191406 207.480469 C 165.285156 207.601562 164.4375 207.78125 163.652344 208.507812 C 162.566406 209.472656 162.324219 210.441406 161.902344 211.652344 C 160.453125 212.253906 159.003906 213.222656 157.855469 214.007812 C 155.863281 215.339844 154.050781 217.03125 152.175781 218.542969 C 150.488281 219.992188 148.855469 221.445312 147.527344 223.195312 C 146.320312 224.769531 145.109375 226.339844 143.722656 227.792969 C 143.058594 228.515625 142.332031 229.121094 141.609375 229.847656 C 141.125 230.332031 140.28125 230.996094 139.734375 231.601562 C 138.890625 231.480469 137.984375 231.359375 137.257812 231.601562 C 136.351562 231.902344 135.507812 233.050781 134.902344 233.777344 C 134.238281 234.621094 133.636719 235.40625 132.851562 236.195312 C 132.308594 236.738281 131.523438 237.644531 130.738281 238.25 C 129.953125 237.886719 129.046875 237.644531 128.320312 237.765625 C 127.355469 237.945312 126.929688 238.792969 126.328125 239.519531 C 125.542969 240.484375 124.574219 241.152344 123.488281 241.632812 C 123.308594 241.753906 123.066406 241.875 122.824219 241.996094 C 120.410156 241.875 118.292969 242.902344 115.816406 243.8125 C 113.28125 244.71875 110.988281 245.683594 108.628906 247.136719 C 105.066406 249.371094 101.5625 251.429688 97.820312 253.242188 C 93.953125 255.117188 90.089844 256.929688 86.101562 258.441406 C 83.808594 259.285156 82.359375 260.433594 81.210938 262.550781 C 79.820312 262.730469 78.550781 263.035156 77.164062 263.519531 C 74.445312 264.546875 71.304688 266.238281 68.40625 266.238281 C 67.015625 266.238281 65.265625 266.058594 65.023438 267.871094 C 64.964844 268.476562 65.023438 269.078125 65.144531 269.683594 C 64.179688 269.925781 63.152344 270.046875 62.304688 270.289062 C 61.460938 269.5625 60.253906 269.867188 59.105469 269.804688 C 56.75 269.683594 54.636719 268.957031 52.339844 268.597656 C 51.132812 268.414062 47.386719 267.75 46.601562 269.261719 C 45.816406 269.078125 44.789062 269.140625 44.1875 269.078125 C 43.339844 268.957031 42.433594 268.898438 41.589844 268.957031 C 40.984375 269.019531 38.507812 269.140625 37.421875 269.441406 C 35.429688 269.503906 33.195312 269.867188 31.925781 271.496094 C 30.234375 273.734375 32.710938 275.789062 34.402344 276.816406 C 38.871094 279.597656 44.246094 282.136719 49.5 282.800781 C 51.734375 283.105469 53.972656 283.226562 56.207031 283.285156 C 58.5625 284.253906 60.855469 285.765625 62.726562 287.398438 C 63.816406 288.363281 64.660156 289.027344 66.171875 288.667969 C 67.257812 288.425781 68.464844 287.941406 69.492188 287.398438 C 70.398438 286.914062 71.246094 286.367188 72.089844 285.886719 C 72.875 286.671875 73.601562 287.398438 74.507812 287.636719 C 76.078125 288 78.191406 286.792969 79.699219 286.308594 C 81.390625 285.765625 82.902344 284.917969 84.53125 284.3125 C 86.34375 283.648438 87.976562 282.984375 89.605469 281.894531 C 90.632812 281.230469 91.597656 280.445312 92.503906 279.660156 C 98.0625 278.027344 103.4375 276.03125 108.8125 273.914062 C 111.832031 272.707031 114.792969 271.316406 117.75 269.925781 C 120.289062 268.777344 122.882812 267.929688 125.121094 266.179688 C 126.328125 265.269531 127.535156 264.304688 128.683594 263.214844 C 129.769531 263.09375 130.796875 263.035156 131.882812 262.792969 C 133.996094 262.371094 136.171875 261.824219 138.226562 261.222656 C 141.125 260.433594 144.207031 259.769531 146.921875 258.5 C 149.519531 257.292969 152.058594 256.023438 154.714844 254.875 C 160.03125 252.457031 165.527344 250.398438 170.839844 247.859375 C 175.855469 245.503906 181.53125 244.355469 186.90625 243.265625 C 190.046875 242.664062 193.1875 242.238281 196.269531 241.515625 C 196.871094 241.394531 197.535156 241.210938 198.199219 241.03125 C 199.769531 241.695312 201.222656 242.664062 202.609375 243.570312 C 204.84375 245.019531 207.140625 246.472656 209.496094 247.742188 C 214.386719 250.519531 218.796875 254.449219 222.902344 258.257812 C 230.816406 265.632812 235.890625 275.609375 243.679688 283.105469 C 245.492188 284.859375 247.125 286.851562 248.933594 288.667969 C 250.144531 289.875 251.53125 290.78125 252.859375 291.75 C 253.164062 292.113281 253.40625 292.414062 253.644531 292.777344 C 254.492188 294.046875 255.398438 295.316406 256.183594 296.585938 C 257.933594 299.367188 260.109375 302.027344 262.34375 304.445312 C 263.550781 305.773438 264.941406 306.921875 266.269531 308.132812 C 267.839844 309.582031 269.109375 311.335938 270.617188 312.90625 C 273.457031 315.929688 276.65625 318.589844 279.132812 321.976562 C 280.222656 323.488281 281.367188 324.9375 282.515625 326.386719 C 282.9375 326.933594 283.421875 327.414062 283.90625 327.898438 C 285.414062 331.648438 288.675781 334.609375 290.609375 338.175781 C 291.574219 339.929688 292.359375 341.683594 293.207031 343.496094 C 293.992188 345.25 294.535156 346.761719 295.804688 348.273438 C 296.648438 349.238281 298.582031 348.996094 300.03125 348.574219 C 300.273438 348.753906 300.515625 348.875 300.695312 349.058594 C 301.238281 349.601562 301.78125 350.207031 302.328125 350.75 C 302.628906 351.050781 302.992188 351.414062 303.292969 351.71875 C 302.144531 352.625 302.449219 354.015625 303.59375 355.164062 C 304.925781 356.492188 306.132812 357.824219 307.28125 359.273438 C 308.367188 360.605469 309.152344 361.996094 310.601562 362.960938 C 311.929688 363.867188 313.320312 364.652344 314.828125 365.078125 C 315.976562 365.378906 317.125 365.5 318.273438 365.5625 C 321.351562 367.191406 324.25 369.128906 327.148438 371.242188 C 330.230469 373.480469 333.191406 374.75 336.996094 374.023438 C 339.59375 373.480469 344.484375 371.96875 344.425781 368.523438 C 344.363281 365.078125 340.738281 362.175781 338.6875 360.363281 Z M 324.070312 13.609375 C 325.035156 13.792969 326.183594 13.972656 327.089844 13.792969 C 327.089844 14.273438 327.03125 14.757812 327.03125 15.242188 C 326.425781 15 325.460938 15.242188 324.855469 15.121094 C 324.007812 14.941406 324.070312 14.335938 324.070312 13.609375 Z M 233.535156 82.042969 C 233.230469 82.164062 232.988281 82.34375 232.6875 82.523438 C 232.566406 81.738281 232.445312 80.773438 232.324219 79.503906 C 232.871094 80.46875 233.230469 81.316406 233.535156 82.042969 Z M 231.601562 76.722656 C 231.417969 76.417969 231.179688 76.117188 230.9375 75.816406 C 230.996094 75.632812 231.058594 75.390625 231.058594 75.148438 C 231.296875 75.695312 231.480469 76.179688 231.601562 76.722656 Z M 227.917969 77.144531 C 227.917969 77.023438 227.917969 76.902344 227.917969 76.78125 C 228.039062 76.480469 228.15625 76.238281 228.21875 75.9375 C 228.097656 76.296875 228.039062 76.722656 227.917969 77.144531 Z M 225.320312 86.332031 C 225.015625 86.515625 224.777344 86.695312 224.535156 86.9375 C 224.535156 86.695312 224.472656 86.453125 224.472656 86.210938 C 224.472656 86.03125 224.414062 85.851562 224.351562 85.609375 C 224.414062 85.546875 224.472656 85.488281 224.535156 85.425781 C 224.957031 84.941406 225.320312 84.339844 225.5625 83.675781 C 225.5625 83.675781 225.621094 83.613281 225.621094 83.613281 C 225.863281 83.914062 226.105469 84.277344 226.285156 84.519531 C 225.984375 85.304688 225.621094 85.910156 225.320312 86.332031 Z M 226.648438 85.183594 C 226.707031 85.304688 226.769531 85.425781 226.828125 85.546875 C 226.648438 85.609375 226.46875 85.730469 226.285156 85.851562 C 226.40625 85.609375 226.527344 85.367188 226.648438 85.183594 Z M 221.515625 86.273438 C 221.757812 85.972656 222.058594 85.667969 222.300781 85.367188 C 222.480469 85.125 222.660156 84.824219 222.84375 84.519531 C 223.085938 84.824219 223.328125 85.0625 223.507812 85.367188 C 223.023438 85.972656 222.601562 86.515625 222.179688 87.058594 C 221.996094 86.757812 221.816406 86.453125 221.515625 86.273438 Z M 163.230469 92.679688 C 163.289062 92.320312 163.289062 92.015625 163.351562 91.652344 C 164.378906 91.230469 165.285156 90.566406 166.007812 89.660156 C 166.25 90.019531 166.492188 90.324219 166.734375 90.6875 C 166.792969 90.746094 166.855469 90.867188 166.914062 90.929688 C 166.492188 92.136719 165.34375 92.742188 164.195312 93.105469 C 163.894531 92.984375 163.53125 92.863281 163.230469 92.679688 Z M 177.726562 34.648438 C 177.425781 34.707031 177.121094 34.707031 176.820312 34.769531 C 176.878906 34.648438 176.941406 34.527344 177.0625 34.34375 C 177.304688 34.527344 177.484375 34.585938 177.726562 34.648438 Z M 162.625 49.820312 C 162.566406 49.882812 162.445312 50.003906 162.386719 50.0625 C 162.386719 50.0625 162.386719 50.003906 162.386719 49.941406 C 162.503906 49.941406 162.566406 49.882812 162.625 49.820312 Z M 163.351562 60.460938 C 163.230469 60.703125 163.109375 60.945312 162.988281 61.1875 C 163.050781 60.945312 163.171875 60.703125 163.230469 60.460938 C 163.230469 60.460938 163.289062 60.460938 163.351562 60.460938 Z M 165.40625 80.832031 C 165.40625 80.894531 165.464844 80.953125 165.464844 81.015625 C 165.40625 80.953125 165.40625 80.894531 165.40625 80.832031 Z M 163.171875 77.386719 C 163.230469 77.628906 163.230469 77.929688 163.289062 78.171875 C 163.289062 78.171875 163.289062 78.234375 163.289062 78.234375 C 163.230469 77.992188 163.171875 77.808594 163.109375 77.566406 C 163.109375 77.507812 163.109375 77.449219 163.171875 77.386719 Z M 166.3125 79.804688 C 166.371094 79.867188 166.371094 79.867188 166.429688 79.867188 C 166.429688 79.925781 166.429688 79.984375 166.429688 80.105469 C 166.371094 79.984375 166.371094 79.925781 166.3125 79.804688 Z M 166.429688 79.503906 C 166.3125 79.320312 166.128906 79.140625 165.949219 78.898438 C 165.828125 78.597656 165.707031 78.292969 165.585938 77.992188 C 165.644531 77.75 165.644531 77.507812 165.707031 77.328125 C 165.949219 77.871094 166.191406 78.355469 166.429688 78.714844 C 166.492188 78.957031 166.492188 79.199219 166.429688 79.503906 Z M 162.867188 79.199219 C 162.929688 79.261719 162.929688 79.320312 162.988281 79.441406 C 162.929688 79.746094 162.929688 80.046875 162.929688 80.347656 C 162.867188 79.925781 162.867188 79.5625 162.867188 79.199219 Z M 163.835938 82.644531 C 163.773438 82.164062 163.714844 81.617188 163.652344 81.074219 C 163.652344 80.894531 163.59375 80.710938 163.59375 80.53125 C 163.714844 80.652344 163.773438 80.773438 163.835938 80.894531 C 163.957031 81.496094 163.894531 82.101562 163.835938 82.644531 Z M 166.613281 76.964844 C 166.492188 76.480469 166.371094 75.9375 166.371094 75.390625 C 166.492188 75.269531 166.613281 75.210938 166.734375 75.148438 C 166.734375 75.753906 166.671875 76.359375 166.613281 76.964844 Z M 164.921875 74.605469 C 164.859375 74.726562 164.859375 74.789062 164.800781 74.910156 C 164.742188 75.027344 164.742188 75.089844 164.679688 75.210938 C 164.679688 75.089844 164.679688 74.96875 164.679688 74.789062 C 164.800781 74.667969 164.859375 74.667969 164.921875 74.605469 Z M 161.175781 59.734375 C 161.175781 59.734375 161.238281 59.796875 161.175781 59.734375 C 161.238281 60.398438 161.238281 61.066406 161.117188 61.730469 C 160.996094 61.546875 160.933594 61.308594 160.875 61.066406 C 160.816406 60.882812 160.816406 60.703125 160.753906 60.519531 C 160.875 60.21875 160.996094 59.976562 161.175781 59.734375 Z M 161.417969 64.449219 C 161.296875 64.753906 161.175781 65.054688 160.996094 65.355469 C 160.996094 65.355469 160.933594 65.296875 160.933594 65.296875 C 161.054688 64.996094 161.238281 64.753906 161.417969 64.449219 Z M 165.222656 83.371094 C 165.527344 84.035156 165.828125 84.640625 166.070312 85.246094 C 166.128906 85.425781 166.191406 85.609375 166.25 85.730469 C 166.25 85.789062 166.25 85.789062 166.25 85.851562 C 165.886719 85.546875 165.464844 85.246094 164.980469 84.882812 C 165.101562 84.398438 165.164062 83.914062 165.222656 83.371094 Z M 160.332031 61.308594 C 160.511719 61.730469 160.695312 62.09375 160.933594 62.394531 C 160.753906 63 160.390625 63.605469 160.03125 64.085938 C 159.847656 63.84375 159.726562 63.605469 159.546875 63.300781 C 159.789062 62.574219 160.03125 61.910156 160.332031 61.308594 Z M 159.789062 64.328125 C 159.667969 64.449219 159.546875 64.570312 159.363281 64.632812 C 159.304688 64.691406 159.183594 64.753906 159.125 64.8125 C 159.183594 64.449219 159.304688 64.148438 159.425781 63.785156 C 159.484375 63.964844 159.605469 64.148438 159.789062 64.328125 Z M 159.125 66.203125 C 158.941406 66.503906 158.820312 66.808594 158.640625 67.109375 C 158.640625 66.929688 158.699219 66.746094 158.699219 66.566406 C 158.882812 66.445312 159.003906 66.324219 159.125 66.203125 Z M 158.761719 68.984375 C 159.183594 67.894531 159.96875 66.746094 160.753906 65.476562 C 160.816406 65.539062 160.816406 65.539062 160.875 65.597656 C 160.390625 66.746094 159.910156 67.957031 159.546875 69.164062 C 159.363281 69.832031 159.183594 70.496094 159.125 71.160156 C 159.0625 71.039062 159.003906 70.859375 158.941406 70.738281 C 158.882812 70.191406 158.820312 69.648438 158.761719 68.984375 Z M 164.859375 85.609375 C 164.859375 85.546875 164.859375 85.546875 164.859375 85.488281 C 165.34375 85.851562 165.828125 86.152344 166.25 86.394531 C 166.25 86.574219 166.25 86.757812 166.25 86.878906 C 166.25 86.9375 166.191406 87.058594 166.191406 87.121094 C 166.007812 86.9375 165.828125 86.695312 165.585938 86.453125 C 165.34375 86.210938 165.101562 85.910156 164.921875 85.609375 C 164.859375 85.667969 164.859375 85.609375 164.859375 85.609375 Z M 166.792969 88.390625 C 166.914062 88.449219 166.976562 88.511719 167.097656 88.570312 C 167.097656 88.75 167.15625 88.933594 167.15625 89.113281 C 167.035156 88.933594 166.855469 88.691406 166.734375 88.449219 C 166.792969 88.511719 166.792969 88.449219 166.792969 88.390625 Z M 168.242188 89.355469 C 168.304688 89.355469 168.363281 89.417969 168.425781 89.417969 C 168.484375 89.539062 168.546875 89.597656 168.605469 89.71875 C 168.484375 89.839844 168.304688 90.019531 168.183594 90.203125 C 168.183594 89.898438 168.242188 89.597656 168.242188 89.355469 Z M 167.820312 92.320312 C 168.363281 93.164062 168.785156 93.949219 169.089844 94.617188 C 168.546875 94.617188 168 94.496094 167.457031 94.375 C 167.457031 94.3125 167.457031 94.191406 167.457031 94.132812 C 167.519531 93.589844 167.640625 92.921875 167.820312 92.320312 Z M 169.875 94.554688 C 169.570312 93.589844 169.089844 92.4375 168.363281 91.167969 C 168.546875 90.867188 168.726562 90.625 168.96875 90.382812 C 169.453125 91.109375 169.933594 91.835938 170.539062 92.5 C 170.355469 93.164062 170.175781 93.828125 170.117188 94.496094 C 170.054688 94.554688 169.933594 94.554688 169.875 94.554688 Z M 172.230469 41.78125 C 171.988281 41.839844 171.746094 41.902344 171.503906 41.960938 C 171.503906 41.839844 171.566406 41.71875 171.566406 41.539062 C 171.6875 41.238281 171.746094 40.933594 171.808594 40.511719 C 172.046875 40.449219 172.351562 40.328125 172.59375 40.269531 C 172.472656 40.8125 172.351562 41.296875 172.230469 41.78125 Z M 171.203125 41.660156 C 171.140625 41.839844 171.140625 41.960938 171.082031 42.144531 C 170.960938 42.203125 170.902344 42.203125 170.78125 42.265625 C 170.71875 42.265625 170.660156 42.265625 170.597656 42.324219 C 170.539062 41.960938 170.539062 41.597656 170.476562 41.117188 C 170.71875 40.996094 170.960938 40.933594 171.140625 40.8125 C 171.140625 41.117188 171.140625 41.417969 171.203125 41.660156 Z M 167.214844 44.5625 C 166.3125 45.527344 165.585938 46.617188 164.742188 47.585938 C 164.621094 47.765625 164.4375 47.886719 164.316406 48.066406 C 164.257812 48.066406 164.257812 48.128906 164.195312 48.128906 C 164.257812 47.523438 164.378906 46.738281 164.800781 45.890625 C 165.464844 45.40625 166.3125 44.984375 167.214844 44.5625 Z M 163.957031 48.25 C 163.472656 48.492188 162.988281 48.734375 162.503906 49.035156 C 162.625 48.308594 162.988281 47.28125 164.195312 46.375 C 163.957031 47.101562 163.894531 47.765625 163.957031 48.25 Z M 159.910156 56.347656 L 159.847656 56.46875 C 159.910156 56.53125 159.910156 56.53125 159.96875 56.589844 C 159.96875 56.652344 159.96875 56.710938 160.03125 56.710938 C 159.425781 57.679688 158.820312 58.585938 158.339844 59.433594 C 158.21875 58.828125 158.21875 58.164062 158.21875 57.4375 C 158.699219 56.53125 159.246094 55.683594 159.910156 54.839844 C 159.789062 55.320312 159.847656 55.804688 159.910156 56.347656 Z M 157.675781 69.164062 C 157.675781 69.347656 157.734375 69.46875 157.734375 69.589844 C 157.675781 70.011719 157.613281 70.375 157.554688 70.796875 C 157.3125 70.191406 157.070312 69.527344 156.886719 68.800781 C 157.070312 68.5 157.25 68.136719 157.492188 67.835938 C 157.554688 68.320312 157.613281 68.742188 157.675781 69.164062 Z M 158.15625 71.582031 C 158.277344 72.128906 158.398438 72.550781 158.578125 72.972656 C 158.578125 72.972656 158.578125 73.035156 158.519531 73.035156 C 158.398438 72.730469 158.21875 72.429688 158.097656 72.066406 C 158.097656 71.945312 158.097656 71.765625 158.15625 71.582031 Z M 163.351562 85.851562 C 163.289062 86.09375 163.171875 86.332031 163.109375 86.574219 C 162.929688 85.789062 162.6875 85.003906 162.445312 84.15625 C 162.6875 84.761719 163.050781 85.304688 163.351562 85.851562 Z M 167.035156 92.621094 C 166.914062 93.164062 166.855469 93.648438 166.914062 94.070312 C 166.914062 94.132812 166.914062 94.132812 166.914062 94.191406 C 166.671875 94.132812 166.492188 94.070312 166.25 93.949219 C 165.949219 93.828125 165.707031 93.769531 165.464844 93.648438 C 166.007812 93.46875 166.550781 93.105469 167.035156 92.621094 Z M 171.082031 93.164062 C 171.203125 93.285156 171.324219 93.40625 171.445312 93.589844 C 171.566406 93.707031 171.625 93.828125 171.746094 93.949219 C 171.566406 94.070312 171.382812 94.191406 171.261719 94.253906 C 171.140625 94.3125 171.082031 94.3125 170.960938 94.375 C 170.902344 93.949219 170.960938 93.589844 171.082031 93.164062 Z M 172.953125 39.421875 C 172.652344 39.484375 172.351562 39.542969 172.046875 39.605469 C 172.289062 39.121094 172.59375 38.578125 173.015625 38.03125 C 173.4375 37.550781 173.980469 37.066406 174.644531 36.703125 C 173.859375 37.550781 173.378906 38.457031 172.953125 39.421875 Z M 172.230469 37.730469 C 172.351562 37.367188 172.410156 36.945312 172.59375 36.519531 C 172.894531 36.402344 173.257812 36.28125 173.617188 36.21875 C 173.136719 36.582031 172.714844 37.003906 172.410156 37.488281 C 172.351562 37.550781 172.289062 37.671875 172.230469 37.730469 Z M 184.371094 35.492188 C 185.277344 35.675781 186.363281 35.917969 187.511719 36.21875 C 188.234375 36.339844 189.019531 36.519531 189.804688 36.761719 C 190.289062 37.125 190.773438 37.488281 191.253906 37.851562 C 191.195312 37.851562 191.132812 37.851562 191.074219 37.851562 C 189.324219 37.308594 187.8125 37.066406 186.847656 36.945312 C 185.941406 36.460938 185.035156 35.976562 184.128906 35.613281 C 184.25 35.554688 184.308594 35.554688 184.371094 35.492188 Z M 187.75 35.25 C 187.992188 35.433594 188.234375 35.613281 188.539062 35.796875 C 188.234375 35.734375 187.992188 35.734375 187.691406 35.675781 C 187.085938 35.554688 186.542969 35.433594 186 35.3125 C 186.484375 35.3125 187.085938 35.25 187.75 35.25 Z M 232.566406 50.910156 C 232.507812 51.03125 232.445312 51.152344 232.386719 51.273438 C 232.324219 51.152344 232.265625 51.089844 232.203125 50.96875 C 232.265625 50.847656 232.265625 50.726562 232.324219 50.605469 C 232.386719 50.667969 232.507812 50.789062 232.566406 50.910156 Z M 224.957031 81.859375 C 224.835938 81.679688 224.65625 81.558594 224.472656 81.375 C 224.59375 81.136719 224.777344 80.953125 224.898438 80.710938 C 224.957031 81.136719 225.015625 81.496094 224.957031 81.859375 Z M 231.660156 56.832031 C 231.601562 56.773438 231.601562 56.773438 231.539062 56.710938 C 231.480469 56.410156 231.359375 56.109375 231.238281 55.804688 C 231.417969 56.046875 231.539062 56.230469 231.722656 56.46875 C 231.722656 56.589844 231.660156 56.710938 231.660156 56.832031 Z M 232.507812 57.679688 C 232.628906 57.859375 232.6875 58.042969 232.808594 58.285156 C 232.6875 58.164062 232.566406 57.980469 232.445312 57.859375 C 232.445312 57.800781 232.445312 57.738281 232.507812 57.679688 Z M 223.6875 81.800781 C 223.6875 81.738281 223.6875 81.738281 223.6875 81.679688 C 223.6875 81.738281 223.75 81.738281 223.6875 81.800781 C 223.75 81.800781 223.75 81.800781 223.6875 81.800781 Z M 221.875 75.210938 C 222.238281 75.9375 222.660156 76.601562 223.144531 77.207031 C 223.085938 77.328125 223.023438 77.507812 222.964844 77.628906 C 222.359375 76.902344 221.816406 76.238281 221.875 75.210938 Z M 222.480469 73.519531 C 222.542969 73.457031 222.542969 73.398438 222.601562 73.335938 C 222.722656 73.457031 222.84375 73.578125 222.902344 73.757812 C 223.144531 74.242188 223.207031 74.726562 223.265625 75.269531 C 222.902344 74.667969 222.660156 74.121094 222.480469 73.519531 Z M 227.976562 61.730469 C 227.976562 61.789062 227.917969 61.851562 227.917969 61.851562 C 227.917969 61.789062 227.917969 61.789062 227.976562 61.730469 Z M 229.425781 60.582031 C 229.304688 60.640625 229.246094 60.761719 229.125 60.824219 C 229.0625 60.761719 229.003906 60.703125 228.941406 60.640625 C 228.941406 60.582031 228.941406 60.519531 228.941406 60.519531 C 229.003906 60.398438 229.125 60.339844 229.183594 60.21875 C 229.246094 60.097656 229.304688 60.039062 229.367188 59.976562 C 229.488281 60.097656 229.609375 60.21875 229.789062 60.339844 C 229.667969 60.398438 229.546875 60.460938 229.425781 60.582031 Z M 221.453125 44.015625 C 221.394531 43.898438 221.273438 43.777344 221.210938 43.714844 C 221.636719 43.777344 221.996094 43.898438 222.421875 43.957031 C 222.480469 44.015625 222.542969 44.078125 222.601562 44.078125 C 222.179688 44.078125 221.816406 44.015625 221.453125 44.015625 Z M 223.265625 80.046875 C 223.628906 79.683594 223.929688 79.320312 224.230469 78.898438 C 224.351562 79.078125 224.414062 79.261719 224.535156 79.441406 C 224.171875 79.867188 223.808594 80.226562 223.507812 80.589844 C 223.445312 80.53125 223.386719 80.53125 223.386719 80.46875 C 223.328125 80.347656 223.328125 80.226562 223.265625 80.046875 Z M 223.871094 80.894531 C 224.113281 80.710938 224.292969 80.46875 224.59375 80.289062 C 224.472656 80.589844 224.292969 80.894531 224.171875 81.136719 C 224.050781 81.015625 223.992188 80.953125 223.871094 80.894531 Z M 225.078125 78.113281 C 225.078125 78.050781 225.015625 78.050781 225.015625 77.992188 C 225.136719 77.75 225.320312 77.507812 225.441406 77.265625 C 225.5625 76.964844 225.742188 76.601562 225.863281 76.296875 C 225.742188 77.085938 225.5 77.808594 225.320312 78.414062 C 225.199219 78.292969 225.136719 78.234375 225.078125 78.113281 Z M 226.40625 63.90625 C 226.585938 63.664062 226.769531 63.421875 226.890625 63.242188 C 227.253906 63.058594 227.675781 62.816406 228.15625 62.515625 C 228.21875 62.636719 228.21875 62.695312 228.277344 62.816406 C 228.277344 62.9375 228.339844 63 228.398438 63.121094 C 227.734375 63.726562 227.3125 64.328125 227.011719 64.875 C 226.769531 64.511719 226.585938 64.207031 226.40625 63.90625 Z M 229.304688 62.335938 C 229.246094 62.214844 229.246094 62.09375 229.183594 61.972656 C 229.246094 62.03125 229.367188 62.152344 229.425781 62.214844 C 229.425781 62.273438 229.367188 62.273438 229.304688 62.335938 Z M 229.789062 61.425781 C 229.847656 61.367188 229.96875 61.308594 230.03125 61.246094 C 230.03125 61.246094 230.03125 61.246094 230.089844 61.246094 C 230.089844 61.308594 230.152344 61.367188 230.152344 61.425781 C 230.089844 61.488281 230.089844 61.546875 230.03125 61.609375 C 229.910156 61.546875 229.847656 61.488281 229.789062 61.425781 Z M 223.628906 82.886719 C 223.6875 82.707031 223.6875 82.523438 223.6875 82.34375 C 223.808594 82.222656 223.871094 82.101562 223.992188 81.980469 C 224.292969 82.222656 224.535156 82.464844 224.777344 82.707031 C 224.59375 83.433594 224.292969 84.097656 223.871094 84.703125 C 223.6875 84.398438 223.445312 84.035156 223.207031 83.734375 C 223.386719 83.492188 223.566406 83.191406 223.628906 82.886719 Z M 226.648438 75.511719 C 226.707031 75.996094 226.769531 76.480469 226.828125 76.964844 C 226.648438 77.207031 226.46875 77.386719 226.285156 77.566406 C 226.46875 76.902344 226.585938 76.238281 226.648438 75.511719 Z M 227.433594 72.550781 C 227.433594 72.550781 227.492188 72.609375 227.492188 72.609375 C 227.492188 72.851562 227.554688 73.09375 227.554688 73.277344 C 227.492188 73.035156 227.492188 72.792969 227.433594 72.550781 Z M 228.097656 67.171875 C 228.398438 66.746094 228.761719 66.265625 229.246094 65.71875 C 229.546875 66.6875 229.847656 67.59375 230.089844 68.441406 C 229.609375 68.921875 229.183594 69.347656 228.882812 69.710938 C 228.640625 68.863281 228.398438 68.015625 228.097656 67.171875 Z M 227.855469 66.566406 C 227.675781 66.203125 227.492188 65.78125 227.3125 65.417969 C 227.613281 64.933594 228.039062 64.449219 228.703125 63.90625 C 228.824219 64.207031 228.882812 64.570312 229.003906 64.875 C 228.519531 65.476562 228.097656 66.082031 227.855469 66.566406 Z M 229.609375 63.242188 C 229.789062 63.179688 229.910156 63.058594 230.089844 62.9375 C 230.152344 63.058594 230.273438 63.121094 230.332031 63.242188 C 230.152344 63.421875 229.96875 63.664062 229.789062 63.84375 C 229.726562 63.605469 229.667969 63.421875 229.609375 63.242188 Z M 231.480469 61.425781 C 231.601562 61.488281 231.722656 61.546875 231.84375 61.609375 C 231.722656 61.667969 231.660156 61.789062 231.539062 61.851562 C 231.539062 61.730469 231.539062 61.546875 231.480469 61.425781 Z M 231.539062 60.519531 C 231.660156 60.097656 231.722656 59.675781 231.78125 59.191406 C 231.902344 59.007812 232.023438 58.769531 232.144531 58.527344 C 232.566406 59.007812 232.929688 59.492188 233.230469 59.976562 C 232.988281 60.339844 232.75 60.640625 232.445312 60.945312 C 232.144531 60.882812 231.84375 60.703125 231.539062 60.519531 Z M 233.535156 61.609375 Z M 234.015625 58.34375 C 233.714844 57.558594 233.351562 56.832031 232.929688 56.109375 C 232.929688 56.046875 232.929688 56.046875 232.929688 55.988281 C 232.929688 55.925781 232.929688 55.867188 232.988281 55.804688 C 233.414062 56.410156 233.835938 57.074219 234.199219 57.679688 C 234.199219 57.980469 234.078125 58.164062 234.015625 58.34375 Z M 231.964844 54.777344 C 231.78125 54.597656 231.660156 54.355469 231.480469 54.171875 C 231.480469 54.171875 231.480469 54.113281 231.539062 54.113281 C 231.660156 54.292969 231.84375 54.414062 231.964844 54.597656 C 231.964844 54.65625 231.964844 54.71875 231.964844 54.777344 Z M 219.460938 41.902344 C 219.402344 41.839844 219.339844 41.839844 219.339844 41.78125 C 219.402344 41.839844 219.519531 41.839844 219.582031 41.902344 C 219.519531 41.902344 219.519531 41.902344 219.460938 41.902344 Z M 217.285156 41.78125 C 217.589844 41.902344 217.828125 42.082031 218.132812 42.203125 C 218.070312 42.203125 218.011719 42.203125 217.949219 42.265625 C 216.199219 42.144531 214.328125 42.144531 212.394531 42.144531 C 211.972656 42.023438 211.609375 41.839844 211.1875 41.71875 C 211.308594 41.71875 211.367188 41.660156 211.488281 41.660156 C 213 41.359375 214.507812 41.175781 215.898438 41.175781 C 216.320312 41.359375 216.804688 41.597656 217.285156 41.78125 Z M 205.933594 41.960938 C 205.933594 41.902344 205.871094 41.839844 205.871094 41.839844 C 206.171875 41.71875 206.414062 41.539062 206.71875 41.417969 C 207.261719 41.476562 207.863281 41.597656 208.347656 41.71875 C 207.925781 41.839844 207.441406 41.960938 207.019531 42.144531 C 206.65625 42.082031 206.292969 42.023438 205.933594 41.960938 Z M 198.441406 40.390625 C 198.320312 40.328125 198.199219 40.269531 198.078125 40.207031 C 198.199219 40.269531 198.320312 40.328125 198.441406 40.390625 Z M 211.246094 40.933594 C 210.945312 40.996094 210.644531 41.117188 210.339844 41.175781 C 210.097656 40.933594 209.859375 40.753906 209.617188 40.570312 C 210.882812 40.390625 212.152344 40.390625 213.359375 40.570312 C 212.636719 40.632812 211.972656 40.753906 211.246094 40.933594 Z M 201.765625 40.207031 C 201.21875 40.207031 200.617188 40.207031 200.074219 40.269531 C 199.53125 39.96875 198.984375 39.726562 198.441406 39.484375 C 199.347656 39.542969 200.253906 39.605469 201.21875 39.664062 C 201.339844 39.90625 201.582031 40.089844 201.765625 40.207031 Z M 188.296875 37.550781 C 188.234375 37.550781 188.234375 37.550781 188.175781 37.550781 C 188.175781 37.550781 188.113281 37.550781 188.113281 37.488281 C 188.175781 37.550781 188.234375 37.550781 188.296875 37.550781 Z M 193.128906 39.058594 C 193.25 39.121094 193.367188 39.242188 193.550781 39.300781 C 194.335938 39.785156 195.179688 40.207031 196.085938 40.632812 L 196.085938 40.691406 C 196.085938 40.691406 196.085938 40.691406 196.027344 40.691406 C 194.457031 39.847656 192.703125 39.300781 191.011719 38.699219 C 191.679688 38.820312 192.402344 38.9375 193.128906 39.058594 Z M 218.675781 43.292969 C 219.097656 43.351562 219.582031 43.414062 220.003906 43.472656 C 220.246094 43.65625 220.425781 43.835938 220.609375 43.957031 C 219.402344 43.898438 218.191406 43.777344 216.984375 43.714844 C 217.527344 43.59375 218.132812 43.414062 218.675781 43.292969 Z M 225.921875 83.070312 C 226.226562 82.585938 226.46875 82.164062 226.769531 81.617188 C 226.828125 81.496094 226.890625 81.4375 226.949219 81.316406 C 226.949219 81.4375 226.949219 81.558594 226.890625 81.679688 C 226.828125 82.523438 226.648438 83.25 226.46875 83.855469 C 226.347656 83.613281 226.105469 83.371094 225.921875 83.070312 Z M 226.285156 81.316406 C 226.164062 81.496094 226.042969 81.679688 225.984375 81.859375 C 226.042969 81.015625 225.984375 80.105469 225.683594 79.261719 C 226.042969 78.898438 226.46875 78.476562 226.949219 78.050781 C 227.011719 78.65625 227.011719 79.199219 227.011719 79.804688 C 226.769531 80.347656 226.527344 80.832031 226.285156 81.316406 Z M 229.183594 72.128906 C 229.667969 72.792969 230.152344 73.398438 230.511719 74 C 230.453125 74.363281 230.453125 74.726562 230.394531 75.027344 C 229.96875 74.546875 229.609375 74.0625 229.183594 73.578125 C 229.183594 73.15625 229.183594 72.671875 229.183594 72.128906 Z M 230.574219 72.128906 C 230.574219 72.371094 230.574219 72.609375 230.574219 72.851562 C 230.152344 72.1875 229.609375 71.523438 229.0625 70.859375 C 229.0625 70.675781 229.003906 70.496094 229.003906 70.3125 C 229.367188 70.011719 229.789062 69.710938 230.332031 69.226562 C 230.453125 70.191406 230.574219 71.160156 230.574219 72.128906 Z M 230.875 67.59375 C 230.632812 66.6875 230.394531 65.78125 230.089844 64.8125 C 230.332031 64.570312 230.574219 64.328125 230.816406 64.085938 C 231.058594 64.753906 231.359375 65.355469 231.722656 65.902344 C 231.84375 66.023438 231.902344 66.203125 232.023438 66.324219 C 231.601562 66.808594 231.238281 67.230469 230.875 67.59375 Z M 232.6875 65.296875 C 232.324219 64.632812 232.082031 63.90625 231.84375 63.121094 C 232.203125 62.816406 232.507812 62.515625 232.929688 62.214844 C 233.109375 62.335938 233.292969 62.457031 233.472656 62.515625 C 233.414062 63.542969 233.109375 64.511719 232.6875 65.296875 Z M 234.558594 62.273438 C 234.558594 62.214844 234.558594 62.152344 234.558594 62.09375 C 234.621094 62.214844 234.742188 62.394531 234.800781 62.515625 C 234.742188 62.394531 234.621094 62.335938 234.558594 62.273438 Z M 236.796875 64.449219 C 236.492188 64.085938 236.128906 63.785156 235.828125 63.421875 C 235.585938 62.816406 235.285156 62.214844 234.921875 61.546875 C 234.800781 61.367188 234.679688 61.1875 234.621094 60.945312 C 234.621094 60.761719 234.621094 60.582031 234.558594 60.339844 C 234.742188 60.039062 234.921875 59.675781 235.105469 59.3125 C 235.828125 61.003906 236.433594 62.757812 236.796875 64.449219 Z M 234.441406 56.53125 C 234.078125 55.925781 233.59375 55.320312 233.171875 54.71875 C 233.230469 53.691406 233.050781 52.601562 232.628906 51.632812 C 232.6875 51.511719 232.808594 51.453125 232.871094 51.273438 C 233.230469 51.875 233.59375 52.480469 233.835938 53.023438 C 234.320312 54.292969 234.5 55.441406 234.441406 56.53125 Z M 229.789062 44.621094 C 230.816406 45.710938 231.660156 46.917969 232.144531 48.007812 C 231.964844 47.824219 231.78125 47.703125 231.601562 47.523438 C 231.117188 46.859375 230.511719 46.253906 229.789062 45.769531 C 228.640625 45.046875 227.253906 44.621094 225.800781 44.378906 C 224.777344 43.835938 223.566406 43.351562 222.179688 42.988281 C 222.058594 42.867188 221.9375 42.746094 221.816406 42.628906 C 225.015625 42.203125 228.15625 42.445312 229.789062 44.621094 Z M 218.796875 40.933594 C 218.433594 40.8125 218.011719 40.753906 217.648438 40.632812 C 216.742188 40.089844 215.59375 39.605469 214.328125 39.300781 C 215.65625 39.363281 216.863281 39.726562 217.890625 40.328125 C 218.191406 40.570312 218.496094 40.753906 218.796875 40.933594 Z M 189.746094 35.371094 C 192.222656 35.675781 195.664062 36.402344 198.804688 38.152344 C 197.292969 38.152344 195.964844 38.152344 194.757812 38.09375 C 194.757812 38.09375 194.699219 38.09375 194.699219 38.09375 C 193.550781 37.488281 192.464844 36.945312 191.375 36.582031 C 190.832031 36.160156 190.289062 35.796875 189.746094 35.433594 C 189.683594 35.371094 189.746094 35.371094 189.746094 35.371094 Z M 184.492188 33.742188 C 185.09375 33.863281 185.699219 34.101562 186.242188 34.40625 C 185.277344 34.527344 184.429688 34.769531 183.765625 35.011719 C 183.222656 34.949219 182.679688 34.890625 182.316406 34.890625 C 181.289062 34.585938 180.203125 34.40625 179.175781 34.527344 C 178.753906 34.285156 178.328125 34.042969 177.90625 33.921875 C 179.296875 33.136719 181.773438 33.136719 184.492188 33.742188 Z M 174.828125 34.285156 C 175.429688 34.164062 176.035156 34.164062 176.699219 34.34375 C 176.578125 34.527344 176.519531 34.769531 176.457031 34.949219 C 175.972656 35.070312 175.550781 35.25 175.128906 35.433594 C 174.585938 35.371094 174.042969 35.371094 173.558594 35.492188 C 173.4375 35.492188 173.257812 35.554688 173.136719 35.613281 C 173.5 34.890625 174.042969 34.464844 174.828125 34.285156 Z M 170.597656 39 C 170.71875 38.152344 171.140625 37.488281 171.808594 37.003906 C 171.6875 37.367188 171.625 37.730469 171.625 38.03125 C 171.625 38.394531 171.625 38.820312 171.566406 39.121094 C 171.445312 39.421875 171.382812 39.664062 171.324219 39.90625 C 171.023438 40.027344 170.78125 40.089844 170.539062 40.207031 C 170.476562 39.847656 170.539062 39.421875 170.597656 39 Z M 170.054688 41.296875 C 170.117188 41.71875 170.175781 42.082031 170.238281 42.386719 C 169.089844 42.628906 168.0625 42.988281 167.15625 43.414062 C 166.976562 43.414062 166.855469 43.472656 166.671875 43.472656 C 167.640625 42.6875 168.785156 41.902344 170.054688 41.296875 Z M 162.929688 45.648438 C 163.472656 45.105469 164.136719 44.804688 164.859375 44.5625 C 164.800781 44.621094 164.800781 44.683594 164.742188 44.742188 C 164.378906 45.046875 163.957031 45.285156 163.652344 45.589844 C 162.988281 46.195312 162.566406 46.738281 162.324219 47.34375 C 162.445312 46.796875 162.625 46.195312 162.929688 45.648438 Z M 159.726562 52.421875 C 160.390625 51.511719 161.175781 50.789062 162.144531 50.121094 C 162.144531 50.183594 162.144531 50.242188 162.144531 50.304688 C 161.359375 51.152344 160.695312 51.996094 160.269531 52.902344 C 159.546875 53.691406 158.941406 54.535156 158.339844 55.441406 C 158.640625 54.476562 159.0625 53.386719 159.726562 52.421875 Z M 157.613281 58.707031 C 157.675781 59.191406 157.734375 59.613281 157.855469 60.039062 C 157.855469 60.097656 157.914062 60.21875 157.914062 60.277344 C 157.070312 61.972656 156.949219 63.242188 157.070312 63.242188 C 157.191406 63.242188 157.371094 62.9375 157.675781 62.335938 C 157.675781 62.394531 157.613281 62.457031 157.613281 62.515625 C 157.3125 63.90625 157.25 65.234375 157.371094 66.445312 C 157.070312 66.808594 156.769531 67.171875 156.527344 67.53125 C 155.863281 64.933594 156.222656 61.789062 157.613281 58.707031 Z M 156.285156 71.945312 C 156.222656 71.101562 156.285156 70.3125 156.585938 69.589844 C 156.886719 70.375 157.191406 71.101562 157.492188 71.765625 C 157.371094 73.878906 157.675781 75.089844 157.734375 75.027344 C 157.914062 75.027344 157.855469 74.183594 158.035156 72.792969 C 158.15625 73.035156 158.277344 73.277344 158.398438 73.457031 C 157.792969 75.089844 157.613281 76.78125 157.734375 78.414062 C 157.25 77.265625 156.464844 75.027344 156.285156 71.945312 Z M 159.183594 74.789062 C 159.246094 74.847656 159.246094 74.910156 159.304688 74.96875 C 159.363281 75.390625 159.484375 75.753906 159.605469 76.117188 C 159.183594 78.292969 159.726562 80.710938 160.511719 82.285156 C 161.359375 84.339844 162.082031 86.152344 162.386719 87.84375 C 162.386719 87.84375 162.324219 87.90625 162.324219 87.90625 C 161.78125 87 160.875 85.546875 160.089844 83.554688 C 159.125 81.4375 158.277344 77.929688 159.183594 74.789062 Z M 163.410156 88.570312 C 163.773438 88.207031 164.074219 87.722656 164.316406 87.300781 C 164.679688 87.84375 165.042969 88.328125 165.40625 88.8125 C 164.859375 89.539062 164.195312 90.082031 163.410156 90.445312 C 163.410156 90.203125 163.410156 90.019531 163.410156 89.78125 C 163.410156 89.355469 163.410156 88.992188 163.410156 88.570312 Z M 162.566406 91.957031 C 162.566406 92.078125 162.566406 92.257812 162.566406 92.378906 C 162.386719 92.320312 162.203125 92.199219 162.023438 92.136719 C 162.203125 92.078125 162.386719 92.015625 162.566406 91.957031 Z M 157.613281 95.644531 C 156.707031 95.765625 156.164062 96.007812 155.800781 96.429688 C 153.929688 96.1875 151.9375 96.367188 150.125 95.886719 C 149.582031 95.765625 148.976562 95.582031 148.433594 95.402344 C 148.734375 95.097656 149.15625 94.738281 149.761719 94.496094 C 151.332031 93.589844 153.988281 93.164062 157.3125 92.921875 C 158.035156 92.800781 158.882812 92.742188 159.726562 92.621094 C 160.453125 92.921875 161.238281 93.347656 162.023438 93.707031 C 156.285156 94.859375 152.84375 93.828125 152.84375 93.707031 C 152.601562 94.070312 156.285156 95.523438 162.203125 94.496094 C 162.144531 94.675781 162.082031 94.796875 162.023438 94.917969 C 161.839844 95.28125 161.660156 95.460938 161.480469 95.582031 C 160.210938 95.523438 158.882812 95.460938 157.613281 95.644531 Z M 162.023438 95.703125 C 162.144531 95.582031 162.265625 95.402344 162.445312 95.21875 C 162.566406 94.976562 162.6875 94.738281 162.808594 94.433594 C 162.988281 94.433594 163.109375 94.375 163.289062 94.375 C 164.074219 94.738281 164.921875 95.160156 165.828125 95.460938 C 165.949219 95.523438 166.070312 95.582031 166.25 95.582031 C 164.800781 95.644531 163.410156 95.824219 162.023438 95.703125 Z M 173.5 96.792969 C 173.195312 96.914062 172.832031 97.035156 172.472656 97.15625 C 171.988281 96.730469 171.445312 96.429688 170.839844 96.125 C 170.839844 96.066406 170.839844 96.066406 170.839844 96.007812 C 171.203125 95.945312 171.503906 95.824219 171.867188 95.703125 C 172.167969 95.582031 172.472656 95.402344 172.710938 95.160156 C 173.074219 95.644531 173.378906 96.1875 173.679688 96.730469 C 173.617188 96.730469 173.558594 96.792969 173.5 96.792969 Z M 197.597656 41.660156 C 197.839844 41.71875 198.078125 41.71875 198.382812 41.78125 C 198.5625 41.960938 198.746094 42.082031 198.925781 42.265625 C 198.746094 42.265625 198.625 42.265625 198.441406 42.265625 C 198.140625 42.023438 197.898438 41.839844 197.597656 41.660156 Z M 220.972656 86.816406 C 221.273438 87.058594 221.515625 87.300781 221.695312 87.601562 C 221.273438 88.148438 220.910156 88.691406 220.667969 89.113281 C 220.304688 88.933594 219.882812 88.8125 219.460938 88.8125 C 219.882812 88.085938 220.425781 87.421875 220.972656 86.816406 Z M 221.394531 89.417969 C 221.332031 89.355469 221.210938 89.355469 221.152344 89.296875 C 221.394531 89.054688 221.695312 88.691406 222.117188 88.207031 C 222.300781 88.511719 222.359375 88.8125 222.480469 89.113281 C 222.300781 89.355469 222.117188 89.539062 221.875 89.78125 C 221.695312 89.597656 221.515625 89.476562 221.394531 89.417969 Z M 222.902344 88.691406 C 222.84375 88.390625 222.722656 88.027344 222.601562 87.722656 C 222.84375 87.421875 223.144531 87.058594 223.507812 86.636719 C 223.628906 86.515625 223.75 86.332031 223.871094 86.210938 C 223.871094 86.273438 223.871094 86.332031 223.871094 86.394531 C 223.992188 86.757812 224.050781 87.121094 224.113281 87.421875 C 224.050781 87.480469 224.050781 87.480469 223.992188 87.542969 C 223.628906 87.84375 223.265625 88.269531 222.902344 88.691406 Z M 227.371094 85.246094 C 227.3125 85.304688 227.191406 85.304688 227.132812 85.367188 C 227.070312 85.183594 227.011719 84.941406 226.890625 84.703125 C 227.253906 83.914062 227.554688 83.007812 227.734375 81.800781 C 227.917969 80.953125 227.976562 79.984375 227.976562 79.019531 C 228.519531 77.6875 228.882812 76.179688 229.0625 74.546875 C 229.488281 75.027344 229.847656 75.453125 230.210938 75.875 C 229.609375 78.957031 228.460938 80.589844 228.640625 80.652344 C 228.640625 80.773438 229.910156 79.320312 230.753906 76.480469 C 230.9375 76.660156 231.058594 76.84375 231.179688 77.085938 C 231.359375 77.449219 231.601562 77.808594 231.78125 78.171875 C 232.023438 80.046875 232.265625 81.558594 232.507812 82.644531 C 232.082031 82.886719 231.722656 83.191406 231.296875 83.433594 C 230.03125 84.21875 228.703125 84.703125 227.371094 85.246094 Z M 227.371094 85.246094 " fill-opacity="1" fill-rule="nonzero"/></g></svg>