<svg xmlns="http://www.w3.org/2000/svg" xmlns:xlink="http://www.w3.org/1999/xlink" width="500" zoomAndPan="magnify" viewBox="0 0 375 374.999991" height="500" preserveAspectRatio="xMidYMid meet" version="1.0"><defs><clipPath id="6e8e173684"><path d="M 0.261719 14 L 375 14 L 375 361 L 0.261719 361 Z M 0.261719 14 " clip-rule="nonzero"/></clipPath></defs><g clip-path="url(#6e8e173684)"><path fill="#f3ac41" d="M 218.363281 138.441406 C 222.257812 138.117188 226.15625 138.199219 229.96875 138.117188 C 233.625 138.035156 237.355469 137.792969 241.007812 137.710938 C 247.421875 137.546875 253.753906 138.523438 260.246094 138.035156 C 267.632812 137.546875 274.9375 135.355469 282 133.085938 C 290.277344 130.40625 298.882812 129.109375 307.082031 126.027344 C 313.332031 123.671875 313.980469 123.183594 320.472656 121.480469 C 321.449219 122.050781 322.585938 122.375 323.476562 122.375 C 327.375 122.617188 330.863281 121.238281 334.433594 119.777344 C 338.167969 118.15625 341.984375 116.9375 345.796875 115.71875 C 346.367188 116.371094 346.933594 116.9375 347.503906 117.503906 C 348.640625 118.480469 352.617188 120.425781 352.292969 117.34375 C 352.210938 116.289062 351.316406 115.476562 351.074219 114.421875 C 350.914062 113.773438 350.914062 113.042969 350.992188 112.3125 C 352.699219 112.148438 354.320312 111.90625 355.945312 111.664062 C 357.648438 111.417969 359.191406 110.769531 360.816406 110.285156 C 362.355469 111.339844 364.304688 112.554688 365.929688 112.636719 C 368.851562 112.796875 367.875 110.285156 367.632812 108.253906 C 368.28125 108.417969 368.933594 108.496094 369.742188 108.496094 C 370.636719 108.496094 372.988281 109.066406 373.71875 108.253906 C 374.777344 106.957031 372.339844 105.007812 370.636719 104.117188 C 375.261719 102.65625 375.261719 98.273438 370.066406 100.464844 C 368.039062 101.355469 365.035156 101.519531 363.007812 102.332031 C 361.140625 103.0625 359.191406 103.792969 357.242188 104.359375 C 353.265625 105.578125 349.125 105.820312 345.066406 106.710938 C 341.253906 107.605469 337.277344 107.929688 333.378906 108.496094 C 329.320312 109.148438 326.238281 110.609375 321.933594 111.664062 C 309.433594 112.3125 300.425781 111.988281 297.015625 112.230469 C 283.785156 112.960938 270.230469 112.230469 257.082031 114.421875 C 252.210938 115.234375 246.609375 116.207031 242.066406 118.722656 C 241.820312 118.804688 241.578125 118.804688 241.335938 118.882812 C 240.035156 119.046875 238.816406 119.128906 237.519531 119.210938 C 234.679688 119.371094 232.082031 119.371094 229.402344 118.882812 C 228.183594 118.722656 227.046875 118.398438 225.832031 118.15625 C 225.832031 117.75 225.832031 117.261719 225.832031 116.855469 C 225.832031 115.394531 226.238281 113.449219 225.585938 112.148438 C 224.371094 109.554688 219.175781 110.527344 216.984375 110.527344 C 209.597656 110.363281 202.453125 111.742188 195.148438 110.769531 C 192.550781 110.445312 190.117188 110.121094 187.601562 109.957031 C 187.277344 108.417969 186.789062 106.875 185.816406 105.738281 C 184.433594 104.195312 182.488281 103.871094 180.703125 103.386719 C 178.914062 102.898438 177.128906 102.085938 175.261719 102.167969 C 173.476562 102.25 171.773438 103.304688 170.148438 104.035156 C 168.769531 104.601562 167.632812 105.253906 166.578125 106.144531 C 166.414062 104.523438 165.359375 103.222656 163.898438 102.816406 C 164.953125 100.707031 165.929688 98.355469 166.738281 96.164062 C 167.226562 94.785156 167.550781 93.324219 168.039062 92.023438 C 168.28125 91.457031 168.605469 90.808594 168.933594 90.160156 C 170.472656 91.050781 172.421875 90.96875 173.882812 89.671875 C 175.425781 88.375 176.316406 85.9375 177.292969 84.152344 C 178.429688 82.042969 179.320312 79.851562 180.132812 77.5 C 180.78125 75.472656 182.40625 72.957031 181.917969 70.765625 C 181.511719 69.140625 180.457031 68.492188 179.160156 68.410156 C 179.726562 66.871094 179.160156 64.355469 179.890625 63.21875 C 180.621094 62 180.945312 62 180.703125 60.460938 C 180.621094 59.808594 180.457031 59.078125 180.132812 58.59375 C 181.105469 58.023438 182 56.890625 182.40625 55.996094 C 183.21875 54.292969 182.242188 53.480469 182 51.9375 C 181.757812 50.480469 183.136719 49.179688 181.917969 47.964844 C 181.433594 47.476562 180.863281 47.3125 180.296875 47.234375 C 181.269531 46.015625 182.164062 44.394531 182.164062 43.175781 C 182.242188 41.472656 181.433594 40.578125 180.296875 39.847656 C 180.621094 39.035156 180.703125 38.226562 180.621094 37.414062 C 180.457031 36.117188 179.726562 35.710938 179.320312 34.65625 C 178.507812 32.625 180.375 30.191406 177.535156 29.136719 C 176.15625 28.648438 175.425781 28.8125 174.53125 27.351562 C 173.882812 26.296875 173.640625 25.160156 172.503906 24.511719 C 171.527344 23.945312 170.230469 24.347656 169.257812 23.78125 C 168.28125 23.132812 168.363281 21.835938 167.714844 21.023438 C 166.335938 19.15625 163.574219 19.320312 161.464844 19.804688 C 159.839844 17.777344 157.8125 17.046875 155.214844 16.558594 C 153.105469 16.152344 150.75 14.125 148.558594 14.9375 C 147.503906 15.34375 147.339844 16.476562 146.449219 17.128906 C 145.394531 17.859375 144.582031 16.882812 143.527344 16.804688 C 142.226562 16.640625 141.335938 17.777344 140.117188 17.859375 C 138.816406 18.019531 137.761719 16.964844 136.546875 16.882812 C 135.246094 16.804688 133.949219 17.453125 133.136719 18.507812 C 132.164062 19.644531 132.324219 20.859375 132.8125 22.078125 C 131.1875 22.402344 129.566406 23.050781 128.589844 24.59375 C 128.183594 25.242188 128.023438 26.214844 127.375 26.621094 C 126.644531 27.109375 125.667969 26.785156 124.855469 26.863281 C 122.257812 27.109375 123.316406 29.300781 122.988281 31.246094 C 122.664062 33.277344 120.394531 32.546875 119.742188 34.25 C 119.09375 36.035156 121.125 37.65625 120.066406 39.523438 C 119.09375 41.148438 117.550781 41.632812 117.632812 43.90625 C 117.714844 45.851562 119.011719 47.234375 117.796875 49.019531 C 117.308594 49.75 116.496094 50.316406 116.496094 51.371094 C 116.496094 52.34375 117.226562 52.992188 117.550781 53.886719 C 118.199219 56.078125 116.253906 57.539062 117.632812 59.730469 C 118.363281 60.945312 118.605469 61.921875 118.851562 63.054688 C 117.46875 62.488281 116.007812 62.652344 115.359375 64.515625 C 114.710938 66.382812 115.359375 68.816406 115.523438 70.765625 C 115.847656 74.171875 115.441406 79.367188 117.796875 82.042969 C 119.011719 83.425781 120.71875 83.503906 122.421875 83.425781 C 122.339844 84.480469 122.179688 85.613281 122.097656 86.589844 C 122.097656 86.914062 122.097656 87.320312 122.015625 87.722656 C 120.230469 86.75 117.957031 87.5625 116.007812 88.617188 C 114.792969 87.074219 113.332031 85.777344 111.546875 85.289062 C 109.027344 84.640625 106.269531 85.453125 103.835938 86.101562 C 99.125 87.238281 93.28125 86.507812 89.222656 89.589844 C 86.546875 91.621094 85.085938 94.054688 84.109375 97.21875 C 80.621094 97.785156 77.046875 98.191406 73.558594 98.355469 C 70.878906 98.4375 67.226562 98.03125 64.953125 99.898438 C 60.410156 103.628906 66.902344 110.363281 66.984375 114.828125 C 67.066406 117.179688 66.984375 119.371094 67.308594 121.5625 C 65.035156 121.644531 62.4375 122.535156 60.328125 123.265625 C 57.730469 124.160156 55.050781 125.132812 52.777344 126.59375 C 48.070312 129.675781 43.851562 133.492188 39.386719 136.980469 C 37.925781 138.117188 36.21875 139.496094 34.433594 140.386719 C 30.863281 140.386719 27.375 141.363281 23.800781 140.550781 C 20.066406 139.65625 16.738281 138.847656 12.925781 139.578125 C 11.789062 139.820312 9.679688 140.714844 9.433594 142.171875 C 8.054688 142.335938 6.59375 142.824219 5.296875 143.066406 C 3.507812 143.472656 2.617188 144.6875 3.347656 146.230469 C 2.292969 146.554688 1.074219 147.042969 0.75 148.015625 C 0.261719 149.476562 1.804688 150.53125 2.859375 151.019531 C 5.699219 152.316406 8.867188 151.992188 11.871094 152.640625 C 12.761719 152.804688 13.65625 152.964844 14.46875 153.128906 C 13.898438 153.535156 13.414062 154.019531 13.167969 154.75 C 12.761719 156.292969 13.65625 157.023438 15.035156 157.023438 C 16.414062 157.023438 17.714844 156.699219 19.09375 156.859375 C 20.394531 157.023438 21.691406 157.347656 22.988281 157.511719 C 25.425781 157.835938 28.023438 158.160156 30.214844 156.859375 C 33.949219 154.75 37.113281 151.667969 40.683594 149.234375 C 42.714844 148.257812 44.988281 147.449219 47.015625 146.800781 C 49.289062 145.988281 51.644531 145.09375 54.078125 144.769531 C 56.675781 144.445312 59.355469 144.609375 61.949219 144.609375 C 66.902344 144.609375 71.933594 143.878906 75.585938 140.226562 C 76.480469 140.386719 77.375 140.46875 78.347656 140.550781 C 78.347656 144.363281 78.347656 148.257812 77.941406 151.992188 C 77.617188 155.15625 77.535156 158.890625 78.265625 161.890625 C 78.507812 162.867188 78.753906 163.839844 78.914062 164.8125 C 77.859375 166.113281 76.5625 167.167969 75.992188 168.789062 C 75.261719 170.816406 74.9375 173.089844 74.855469 175.199219 C 74.613281 179.417969 75.101562 183.640625 75.507812 187.859375 C 75.585938 188.914062 75.832031 189.96875 76.074219 191.023438 C 75.992188 191.429688 75.832031 191.835938 75.832031 192.242188 C 75.667969 193.78125 75.75 195.324219 75.75 196.867188 C 75.75 199.625 75.992188 202.628906 75.75 205.386719 C 75.261719 210.5 73.070312 215.367188 72.097656 220.316406 C 71.855469 221.695312 71.527344 223.402344 71.367188 225.105469 C 69.257812 226.484375 66.984375 227.703125 64.953125 228.757812 C 62.195312 230.21875 60.488281 232.488281 61.300781 235.976562 C 61.625 237.277344 62.113281 238.414062 62.761719 239.550781 C 56.757812 242.875 51.398438 246.933594 45.71875 250.828125 C 40.683594 254.238281 35.816406 257.15625 31.835938 262.109375 C 28.589844 266.082031 24.855469 270.546875 23.640625 275.738281 C 22.503906 280.691406 23.394531 286.046875 24.207031 290.914062 C 24.613281 293.429688 25.261719 295.863281 26.804688 297.8125 C 28.023438 299.273438 29.566406 300.328125 31.1875 301.21875 C 31.757812 303.410156 32.8125 305.519531 34.273438 306.980469 C 38.085938 310.875 43.363281 311.199219 48.152344 313.066406 C 53.183594 315.097656 58.21875 317.285156 63.332031 318.910156 C 63.25 319.882812 63.492188 321.019531 63.816406 322.238281 C 64.628906 325.726562 65.765625 329.054688 66.496094 332.542969 C 66.820312 334.164062 66.820312 336.113281 67.714844 337.574219 C 68.445312 338.789062 69.5 339.035156 70.636719 339.035156 C 72.097656 344.308594 73.71875 349.828125 76.886719 354.207031 C 79.808594 358.265625 84.191406 361.023438 89.144531 359.886719 C 94.664062 358.589844 98.640625 353.316406 100.507812 347.960938 C 104.566406 336.355469 99.046875 325.484375 93.039062 315.988281 C 93.039062 315.257812 93.121094 314.527344 93.121094 313.878906 C 93.121094 311.605469 93.203125 309.414062 93.203125 307.226562 C 93.527344 307.0625 93.851562 306.898438 94.175781 306.738281 C 97.179688 305.277344 97.664062 302.84375 98.070312 299.597656 C 98.476562 296.511719 99.207031 293.429688 99.613281 290.347656 C 101.804688 292.292969 104.078125 294.160156 106.105469 296.269531 C 109.027344 299.191406 111.300781 302.761719 113.816406 306.007812 C 118.933594 312.5 124.371094 318.179688 130.621094 323.535156 C 135.570312 327.835938 139.875 332.867188 145.066406 336.84375 C 149.613281 340.25 155.375 340.496094 160.328125 343.011719 C 163.167969 344.472656 166.089844 345.929688 169.335938 345.851562 C 172.179688 345.769531 174.777344 344.472656 177.375 343.089844 C 178.183594 343.496094 179.078125 343.742188 180.050781 343.984375 C 187.519531 345.929688 195.394531 340.089844 199.125 333.273438 C 202.453125 334.246094 204.078125 329.296875 205.457031 326.132812 C 211.464844 328.566406 217.796875 330.027344 224.289062 329.296875 C 230.050781 328.726562 237.84375 326.210938 239.222656 319.234375 C 240.441406 312.984375 235.734375 307.0625 231.917969 302.925781 C 227.777344 298.460938 222.988281 295.378906 217.550781 292.617188 C 213.25 290.425781 208.703125 288.804688 203.996094 288.15625 C 203.265625 286.695312 201.398438 285.316406 200.261719 284.667969 C 197.828125 283.207031 195.3125 282.3125 192.796875 281.339844 C 187.761719 279.390625 181.835938 277.605469 176.480469 277.605469 C 174.53125 277.605469 172.664062 277.851562 170.796875 278.175781 C 170.394531 277.199219 169.90625 276.308594 169.5 275.414062 C 168.363281 273.144531 167.226562 270.953125 166.089844 268.761719 C 165.035156 266.570312 163.574219 264.460938 162.761719 262.109375 C 161.871094 259.59375 160.976562 257.078125 160.003906 254.640625 C 159.433594 253.261719 158.949219 251.800781 158.136719 250.503906 C 157.894531 250.179688 157.648438 249.691406 157.324219 249.285156 C 159.191406 249.042969 161.058594 248.476562 162.277344 247.5 C 164.628906 245.554688 163.414062 242.308594 163.492188 239.628906 C 163.738281 235.898438 165.683594 233.136719 167.390625 229.972656 C 169.90625 225.347656 173.882812 219.425781 173.882812 213.664062 C 174.125 213.257812 174.289062 212.769531 174.53125 212.285156 C 175.261719 210.5 175.585938 208.308594 175.914062 206.359375 C 177.777344 196.867188 177.292969 187.371094 177.128906 177.632812 C 177.046875 172.277344 177.859375 167.003906 179.808594 162.054688 C 180.863281 159.296875 182.566406 156.941406 183.785156 154.34375 C 184.679688 152.480469 186.300781 150.773438 187.113281 148.828125 C 187.925781 148.828125 188.816406 148.828125 189.386719 148.828125 C 190.523438 148.746094 191.496094 148.664062 192.550781 148.503906 C 194.90625 148.179688 197.339844 147.933594 199.695312 147.527344 C 200.507812 148.257812 201.5625 148.664062 202.941406 149.152344 C 204.726562 149.800781 206.1875 151.503906 208.136719 151.667969 C 210.328125 151.828125 211.382812 149.800781 212.355469 148.179688 C 213.492188 146.3125 214.875 144.609375 216.007812 142.742188 C 216.738281 141.199219 217.550781 139.820312 218.363281 138.441406 Z M 218.363281 138.441406 " fill-opacity="1" fill-rule="nonzero"/></g></svg>