<svg xmlns="http://www.w3.org/2000/svg" xmlns:xlink="http://www.w3.org/1999/xlink" width="500" zoomAndPan="magnify" viewBox="0 0 375 374.999991" height="500" preserveAspectRatio="xMidYMid meet" version="1.0"><defs><clipPath id="40fbc38341"><path d="M 60.625 0 L 314 0 L 314 375 L 60.625 375 Z M 60.625 0 " clip-rule="nonzero"/></clipPath></defs><g clip-path="url(#40fbc38341)"><path fill="#f3ac41" d="M 206.742188 231.132812 C 207.339844 230.359375 207.875 229.523438 208.171875 228.566406 C 208.46875 227.433594 208.171875 226.242188 208.054688 225.109375 C 207.875 223.558594 207.753906 222.066406 207.933594 220.515625 C 208.292969 217.832031 208.410156 215.027344 207.992188 212.34375 C 208.46875 211.566406 208.828125 210.734375 208.945312 210.078125 C 209.183594 208.882812 209.066406 207.273438 208.53125 206.257812 C 207.753906 204.886719 207.339844 204.171875 207.515625 202.621094 C 207.753906 200.175781 207.816406 197.847656 207.816406 195.464844 C 208.707031 195.402344 209.542969 195.105469 210.257812 194.449219 C 211.628906 193.316406 210.734375 190.988281 210.734375 189.4375 C 210.675781 186.097656 211.03125 182.699219 211.152344 179.359375 C 211.269531 175.300781 214.070312 171.84375 214.546875 167.847656 C 214.785156 165.578125 214.609375 163.3125 214.609375 161.046875 C 214.667969 158.421875 215.441406 156.8125 217.171875 154.78125 C 218.71875 152.933594 219.910156 150.785156 221.101562 148.699219 C 222.296875 146.671875 223.425781 144.523438 224.261719 142.316406 C 224.558594 142.613281 224.859375 142.914062 225.097656 143.210938 C 225.929688 144.164062 226.882812 145.238281 227.359375 146.371094 C 227.835938 147.503906 227.660156 148.578125 227.71875 149.773438 C 227.777344 150.90625 228.015625 151.859375 228.730469 152.8125 C 229.148438 153.410156 229.984375 154.007812 230.460938 154.722656 C 229.625 155.976562 229.566406 157.167969 230.757812 158.539062 C 233.320312 161.34375 233.675781 164.863281 235.105469 168.203125 C 235.703125 169.574219 236.835938 171.84375 238.265625 172.5 C 239.578125 173.09375 241.722656 172.617188 243.449219 172.320312 C 252.6875 184.667969 270.742188 206.558594 274.257812 210.792969 C 273.664062 213.953125 274.792969 216.339844 276.285156 219.203125 C 277.058594 220.636719 277.773438 222.125 278.847656 223.4375 C 279.800781 224.570312 280.933594 225.464844 282.003906 226.480469 C 283.019531 227.433594 283.613281 228.566406 284.152344 229.761719 C 284.566406 230.773438 285.042969 232.445312 286.238281 232.921875 C 287.429688 233.460938 288.261719 232.265625 288.5 231.253906 C 288.917969 229.703125 288.5 228.089844 287.726562 226.71875 C 287.070312 225.464844 286.058594 224.394531 285.519531 223.140625 C 285.164062 222.304688 284.984375 221.410156 284.867188 220.457031 C 285.640625 220.8125 286.414062 221.113281 287.367188 221.292969 C 288.738281 221.589844 290.109375 222.007812 291.480469 222.363281 C 293.804688 222.902344 295.769531 224.035156 297.917969 225.050781 C 300.238281 226.183594 302.683594 227.316406 305.125 228.269531 C 307.210938 229.046875 309.894531 230.359375 312.160156 229.941406 C 312.992188 229.820312 314.125 229.222656 313.648438 228.328125 C 313.46875 227.972656 312.992188 227.671875 312.515625 227.375 C 313.171875 227.257812 313.945312 226.898438 313.886719 226.242188 C 313.828125 225.464844 312.574219 225.167969 311.980469 224.929688 C 311.085938 224.632812 310.132812 224.394531 309.238281 224.152344 C 309.714844 222.066406 306.617188 221.828125 305.066406 221.410156 C 302.5625 220.753906 300.359375 219.859375 298.214844 218.546875 C 293.804688 215.980469 290.347656 212.164062 286.296875 209.183594 C 284.628906 207.988281 283.019531 206.796875 281.289062 205.78125 C 279.324219 199.816406 269.910156 171.84375 261.207031 160.6875 C 262.160156 159.972656 262.875 159.078125 262.519531 157.882812 C 262.160156 156.394531 260.789062 155.320312 259.660156 154.363281 C 258.289062 153.171875 257.574219 151.859375 256.796875 150.25 C 256.203125 148.996094 255.605469 147.328125 254.652344 146.253906 C 253.820312 145.296875 252.566406 145.296875 251.316406 145.417969 C 251.671875 144.226562 252.03125 142.972656 251.671875 141.957031 C 251.257812 140.585938 250.066406 139.273438 249.46875 137.84375 C 249.171875 137.066406 249.171875 136.171875 248.8125 135.398438 C 248.515625 134.679688 248.097656 133.964844 247.800781 133.191406 C 246.488281 129.789062 245.296875 126.390625 243.269531 123.289062 L 243.152344 123.289062 C 243.03125 121.855469 242.734375 120.484375 242.734375 119.054688 C 242.734375 117.441406 243.09375 115.355469 242.378906 113.863281 C 241.542969 112.074219 239.992188 112.074219 238.445312 111.296875 C 237.191406 110.703125 236.597656 108.078125 235.941406 106.882812 C 235.523438 106.167969 234.09375 103.78125 232.960938 103.066406 C 233.976562 99.546875 230.222656 96.148438 226.765625 95.3125 C 227.183594 94.714844 227.539062 94 227.898438 93.523438 C 228.433594 92.867188 229.328125 92.269531 229.804688 91.554688 C 231.175781 91.675781 232.304688 91.375 233.617188 90.601562 C 236.476562 88.871094 239.277344 86.367188 241.425781 83.917969 C 243.628906 81.414062 244.34375 78.730469 241.601562 76.582031 C 243.507812 75.152344 244.878906 73.421875 245.832031 71.09375 C 248.097656 65.667969 249.648438 59.820312 247.980469 54.035156 C 247.203125 51.292969 246.070312 48.488281 244.34375 46.160156 C 242.972656 44.3125 241.304688 43.179688 239.277344 42.402344 C 237.015625 33.515625 223.128906 33.097656 215.441406 35.304688 C 206.503906 37.871094 196.730469 43.957031 195.179688 53.378906 C 194.644531 56.660156 194.347656 60 193.8125 63.28125 C 191.84375 62.984375 190.890625 64.535156 190.773438 66.621094 C 190.652344 68.648438 191.25 70.378906 191.964844 72.109375 C 191.726562 72.707031 191.367188 73.242188 191.128906 73.839844 C 191.011719 74.078125 190.949219 74.316406 190.832031 74.554688 C 189.28125 73.242188 187.136719 72.46875 185.050781 72.527344 C 183.859375 72.527344 182.667969 72.765625 181.476562 72.765625 C 180.222656 72.765625 179.269531 72.109375 178.199219 71.453125 C 175.933594 70.140625 174.265625 68.828125 172.597656 66.859375 C 170.808594 64.773438 168.84375 63.042969 166.398438 61.730469 C 164.671875 60.777344 162.824219 59.761719 161.035156 58.628906 C 163.179688 56.125 159.605469 53.617188 157.339844 51.886719 C 155.613281 50.574219 153.882812 49.382812 151.976562 48.308594 C 150.546875 47.535156 149 46.042969 147.449219 45.566406 C 146.496094 45.265625 145.722656 45.566406 145.003906 46.042969 C 144.230469 45.386719 143.335938 44.851562 142.621094 44.253906 C 141.132812 43 139.582031 42.046875 137.914062 40.972656 C 133.683594 38.289062 129.453125 35.605469 125.042969 33.277344 C 118.128906 29.519531 112.707031 23.792969 105.914062 19.917969 C 104.484375 19.140625 103.054688 18.664062 101.445312 18.425781 C 100.789062 18.304688 100.191406 18.304688 99.539062 18.304688 C 98.882812 17.949219 98.285156 17.53125 97.75 17.171875 C 96.199219 16.160156 94.589844 15.265625 93.160156 14.128906 C 90.777344 12.339844 88.097656 10.3125 85.296875 9.238281 C 84.34375 8.882812 83.449219 8.523438 82.496094 8.226562 C 81.839844 7.867188 81.183594 7.570312 80.585938 7.210938 C 79.632812 6.613281 78.679688 5.898438 77.726562 5.242188 C 76.953125 4.648438 76.179688 3.871094 75.34375 3.394531 C 74.746094 3.035156 73.140625 2.679688 72.542969 3.335938 C 72.125 3.035156 71.707031 2.796875 71.292969 2.5 C 70.457031 1.902344 68.847656 0.234375 67.65625 0.648438 C 66.167969 1.1875 67.300781 3.335938 67.894531 4.109375 C 68.550781 4.945312 69.386719 5.660156 70.277344 6.316406 C 68.492188 5.78125 66.644531 5.242188 64.914062 4.46875 C 64.082031 4.109375 62.890625 3.214844 61.875 3.453125 C 60.625 3.75 60.863281 5.003906 61.339844 5.898438 C 61.636719 6.4375 62.054688 6.855469 62.53125 7.269531 C 61.9375 8.644531 63.425781 10.132812 64.558594 11.027344 C 69.683594 15.203125 76.058594 17.589844 81.71875 21.050781 C 79.8125 20.929688 77.726562 20.8125 76.179688 21.824219 C 73.914062 23.316406 75.34375 24.570312 77.371094 24.988281 C 79.871094 25.582031 81.363281 26.539062 83.507812 27.789062 C 87.5 30.234375 91.433594 29.042969 95.664062 28.507812 C 97.929688 29.578125 99.953125 30.953125 101.800781 32.679688 C 104.246094 35.007812 106.6875 37.394531 109.191406 39.660156 C 112.289062 42.523438 115.566406 45.089844 118.308594 48.25 C 121.050781 51.351562 124.683594 53.5 127.425781 56.539062 C 128.976562 58.269531 130.761719 59.761719 132.609375 61.253906 C 131.957031 62.148438 131.539062 63.101562 131.480469 64.234375 C 131.238281 67.277344 134.875 70.320312 137.082031 72.050781 C 138.75 73.363281 140.714844 74.375 142.503906 75.507812 C 144.050781 76.582031 145.003906 76.644531 146.375 75.988281 C 146.613281 76.226562 146.851562 76.402344 146.972656 76.582031 C 147.925781 77.597656 148.878906 78.550781 149.890625 79.445312 C 151.738281 81.117188 153.882812 82.609375 155.96875 84.039062 C 157.757812 85.292969 158.769531 86.664062 159.605469 88.691406 C 160.378906 90.601562 161.214844 92.507812 162.109375 94.359375 C 162.585938 95.3125 163.179688 96.265625 163.65625 97.222656 C 163.300781 98.054688 162.703125 98.953125 162.40625 99.667969 C 161.929688 100.980469 161.214844 102.171875 160.679688 103.425781 C 159.484375 106.226562 158.414062 109.03125 157.402344 111.894531 C 155.613281 117.144531 154.898438 122.632812 153.109375 127.882812 C 152.515625 129.671875 152.039062 131.339844 151.800781 133.070312 C 150.546875 134.023438 149.414062 135.097656 148.761719 136.53125 C 147.566406 139.15625 147.03125 141.777344 145.421875 144.285156 C 143.8125 146.730469 141.847656 148.878906 140.179688 151.203125 C 138.925781 152.992188 137.796875 154.84375 136.664062 156.632812 C 135.472656 158.480469 134.039062 160.390625 133.625 162.597656 C 133.265625 164.566406 134.160156 166.234375 135.292969 167.847656 C 136.664062 169.8125 138.035156 171.78125 139.402344 173.75 C 140.714844 175.601562 142.144531 177.808594 144.230469 178.878906 C 145.839844 179.714844 147.269531 179.296875 148.820312 178.640625 C 149.832031 178.222656 150.785156 177.808594 151.800781 177.449219 C 151.621094 178.703125 150.964844 180.191406 150.726562 181.085938 C 150.25 182.578125 149.832031 184.308594 151.085938 185.382812 C 149.832031 185.742188 148.761719 186.398438 148.582031 187.707031 C 148.34375 189.558594 148.523438 191.464844 148.042969 193.257812 C 147.566406 194.984375 146.316406 196 145.125 197.3125 C 143.875 198.683594 143.875 200.234375 144.113281 201.90625 C 144.230469 203.039062 144.351562 204.53125 144.765625 205.84375 C 143.039062 209.957031 141.371094 213.953125 140.597656 218.367188 C 139.941406 222.363281 139.882812 226.421875 139.046875 230.417969 C 138.75 231.847656 138.09375 233.101562 137.855469 234.53125 C 137.675781 235.90625 137.734375 237.335938 137.734375 238.707031 C 137.734375 241.570312 137.796875 244.375 137.496094 247.238281 C 137.320312 249.148438 136.960938 251.117188 137.257812 253.023438 C 137.4375 254.039062 137.855469 254.992188 138.332031 255.945312 C 138.09375 258.214844 138.273438 260.539062 138.75 262.6875 C 139.105469 264.296875 139.703125 265.789062 139.941406 267.398438 C 140.058594 268.414062 139.941406 269.488281 140 270.5 C 140.058594 272.828125 140.773438 274.855469 142.265625 276.703125 C 143.695312 278.554688 145.78125 279.867188 145.421875 282.429688 C 145.125 284.699219 145.242188 286.128906 145.839844 288.335938 C 146.4375 290.542969 146.914062 292.808594 147.746094 294.957031 C 148.582031 297.105469 149.535156 298.65625 149.652344 301.042969 C 149.714844 303.308594 149.652344 305.632812 149.773438 307.902344 C 149.890625 309.632812 149.296875 312.195312 151.261719 313.148438 C 152.453125 313.746094 154.183594 313.628906 155.792969 313.328125 C 156.207031 314.523438 156.445312 315.835938 156.804688 317.027344 C 157.042969 317.804688 157.28125 318.519531 157.816406 319.234375 C 158.117188 319.59375 158.414062 319.949219 158.710938 320.367188 C 158.234375 320.84375 157.816406 321.320312 157.757812 322.097656 C 157.640625 323.171875 157.816406 324.363281 158.054688 325.378906 C 158.472656 327.167969 159.1875 328.359375 160.558594 328.957031 C 160.558594 330.507812 160.558594 332.117188 160.558594 333.667969 C 160.558594 335.042969 160.855469 336.355469 160.976562 337.726562 C 159.128906 338.203125 158.769531 339.394531 158.710938 341.664062 C 158.710938 343.570312 158.117188 346.433594 159.425781 348.042969 C 159.964844 348.699219 160.679688 348.878906 161.394531 348.820312 C 161.273438 349.953125 161.273438 351.265625 162.046875 352.160156 C 163.003906 353.292969 164.847656 353.355469 166.28125 353.472656 C 172.597656 353.890625 180.402344 354.488281 183.800781 348.105469 C 185.109375 345.71875 185.050781 342.617188 185.109375 339.933594 C 185.171875 337.425781 184.632812 335.519531 183.382812 333.609375 C 183.382812 331.046875 183.203125 328.480469 183.085938 325.855469 C 183.738281 324.78125 184.394531 323.707031 184.992188 322.574219 C 185.945312 320.785156 186.601562 318.816406 187.375 316.96875 C 188.210938 315.058594 188.386719 313.328125 186.957031 311.660156 C 185.824219 310.289062 184.039062 309.035156 182.488281 308.199219 C 180.640625 307.183594 179.269531 307.601562 177.960938 308.675781 C 177.484375 308.320312 177.066406 308.019531 176.707031 307.664062 C 176.589844 307.542969 176.53125 307.425781 176.410156 307.246094 C 177.363281 306.589844 178.316406 305.8125 178.675781 304.976562 C 179.210938 303.785156 178.078125 302.234375 177.660156 301.101562 C 177.066406 299.609375 176.230469 298.355469 175.457031 296.984375 C 174.621094 295.496094 174.207031 293.882812 173.90625 292.273438 C 173.25 289.050781 173.3125 285.59375 172.296875 282.429688 C 171.167969 278.613281 168.367188 275.273438 168.367188 271.15625 C 168.367188 268.472656 168.425781 265.667969 168.78125 262.984375 C 169.019531 260.957031 169.4375 258.988281 169.558594 256.960938 C 170.152344 256.542969 170.75 256.125 171.167969 255.648438 C 172.714844 254.039062 172.058594 251.949219 171.34375 250.160156 C 170.152344 247.238281 171.523438 245.925781 173.371094 244.078125 C 174.027344 247.058594 174.980469 249.921875 176.050781 252.785156 C 177.183594 255.769531 179.089844 258.75 179.269531 261.910156 C 179.449219 265.191406 178.972656 268.53125 179.507812 271.695312 C 179.867188 273.664062 180.878906 275.511719 181.476562 277.421875 C 182.011719 279.089844 182.25 280.820312 182.90625 282.492188 C 183.5625 284.160156 184.214844 285.710938 184.992188 287.382812 C 185.347656 288.15625 185.648438 288.933594 185.945312 289.707031 C 185.824219 292.390625 185.765625 295.253906 186.777344 297.582031 C 187.851562 300.027344 190.292969 301.21875 192.203125 302.890625 C 194.050781 304.5 193.273438 307.246094 194.527344 309.273438 C 195.121094 310.226562 196.015625 311.121094 196.671875 312.078125 C 197.386719 313.03125 197.207031 314.046875 197.445312 315.179688 C 197.683594 316.429688 198.519531 317.386719 199.054688 318.519531 C 199.414062 319.234375 199.652344 320.011719 200.128906 320.667969 C 200.128906 320.726562 200.1875 320.726562 200.1875 320.785156 C 200.246094 322.335938 200.246094 323.886719 200.246094 325.4375 C 200.246094 327.109375 199.769531 329.253906 200.128906 330.867188 C 200.304688 331.699219 200.902344 331.941406 201.378906 332.535156 C 202.035156 333.25 201.914062 333.847656 201.914062 334.742188 C 201.914062 336.414062 201.617188 337.546875 201.082031 339.097656 C 200.722656 340.113281 201.019531 340.171875 201.914062 340.707031 C 202.867188 341.246094 203.761719 341.839844 204.65625 342.4375 C 204.359375 343.09375 204 343.75 203.644531 344.40625 C 201.734375 343.628906 199.890625 344.765625 198.695312 346.734375 C 198.21875 347.507812 197.207031 349.296875 197.503906 350.132812 C 197.683594 350.550781 198.160156 351.085938 198.757812 351.503906 C 198.101562 352.042969 197.328125 352.578125 196.730469 352.996094 C 195.957031 353.53125 195.003906 353.949219 194.109375 354.367188 C 192.378906 353.652344 190.054688 353.652344 188.566406 354.546875 C 186.898438 355.5625 185.289062 357.230469 186.363281 359.019531 C 184.8125 360.273438 183.261719 361.703125 181.355469 362.421875 C 179.152344 363.253906 177.246094 363.910156 177.246094 366.535156 C 177.246094 366.835938 177.246094 367.132812 177.304688 367.371094 C 176.648438 367.96875 176.230469 368.742188 176.410156 369.757812 C 176.648438 371.1875 177.960938 372.203125 179.269531 372.800781 C 181.890625 374.050781 184.691406 374.765625 187.613281 374.589844 C 191.011719 374.410156 194.464844 374.527344 197.863281 374.289062 C 205.191406 373.695312 212.761719 371.84375 218.957031 367.90625 C 220.148438 367.730469 221.28125 367.550781 222.472656 367.371094 C 225.214844 367.074219 229.027344 366.894531 231.292969 365.164062 C 233.378906 363.554688 232.367188 360.808594 231.472656 358.839844 C 230.460938 356.574219 229.921875 354.488281 229.445312 352.101562 C 228.96875 349.714844 228.074219 348.820312 226.050781 349.058594 C 225.929688 348.222656 225.8125 347.390625 225.691406 346.613281 C 226.226562 346.433594 226.824219 346.195312 227.421875 345.835938 C 228.851562 345.121094 229.089844 344.585938 228.375 343.273438 C 227.660156 341.960938 227.0625 340.589844 226.585938 339.21875 C 226.347656 338.5 226.167969 337.605469 225.871094 336.832031 C 226.527344 336.054688 227.0625 335.160156 227.183594 334.265625 C 227.359375 333.132812 226.703125 331.820312 226.289062 330.746094 C 225.632812 329.195312 225.632812 327.824219 225.632812 326.152344 C 225.632812 324.484375 225.691406 322.753906 225.632812 321.082031 C 225.632812 320.128906 225.335938 317.921875 224.378906 317.324219 C 224.441406 315.597656 224.378906 313.867188 224.082031 312.316406 C 223.546875 309.511719 221.402344 307.601562 220.863281 304.800781 C 220.210938 301.636719 218.71875 298.894531 216.8125 296.210938 C 215.859375 294.898438 215.738281 293.289062 215.738281 291.738281 C 215.800781 289.886719 215.5625 288.277344 215.023438 286.488281 C 214.488281 284.816406 213.476562 283.804688 212.285156 282.492188 C 211.628906 281.773438 211.03125 281 210.316406 280.285156 C 210.675781 279.390625 210.617188 278.316406 210.792969 277.359375 C 211.03125 276.046875 211.390625 274.496094 210.914062 273.1875 C 210.496094 271.875 209.421875 270.5625 208.648438 269.367188 C 207.992188 268.355469 207.277344 266.445312 206.265625 265.371094 C 206.621094 264.476562 206.980469 263.582031 207.277344 262.6875 C 208.292969 259.882812 208.828125 257.082031 208.707031 254.097656 C 208.589844 252.1875 208.054688 250.160156 207.515625 248.3125 C 207.21875 247.359375 206.921875 245.628906 206.207031 244.554688 C 206.324219 244.136719 206.382812 243.777344 206.503906 243.359375 C 206.742188 240.675781 209.601562 233.519531 206.742188 231.132812 Z M 206.742188 231.132812 " fill-opacity="1" fill-rule="nonzero"/></g></svg>