<svg xmlns="http://www.w3.org/2000/svg" xmlns:xlink="http://www.w3.org/1999/xlink" width="500" zoomAndPan="magnify" viewBox="0 0 375 374.999991" height="500" preserveAspectRatio="xMidYMid meet" version="1.0"><defs><clipPath id="dc97063efb"><path d="M 37.5 1.75 L 337 1.75 L 337 375 L 37.5 375 Z M 37.5 1.75 " clip-rule="nonzero"/></clipPath></defs><g clip-path="url(#dc97063efb)"><path fill="#f3ac41" d="M 273.925781 324.828125 C 275.488281 325.441406 276.984375 326.1875 278.550781 326.597656 C 281.132812 327.277344 283.921875 328.027344 286.640625 328.367188 C 286.503906 327.820312 286.4375 327.277344 286.4375 326.734375 C 286.4375 324.894531 286.03125 324.011719 284.941406 322.582031 C 283.851562 321.152344 282.699219 319.519531 282.015625 317.886719 C 281.609375 316.867188 281.542969 315.847656 281.542969 314.757812 C 280.453125 315.574219 279.296875 316.796875 278.617188 317.410156 C 277.121094 318.636719 275.828125 319.996094 274.671875 321.492188 C 273.992188 322.378906 273.246094 323.398438 272.292969 324.285156 C 272.90625 324.417969 273.519531 324.625 273.925781 324.828125 Z M 272.226562 129.675781 C 277.394531 135.050781 282.085938 140.765625 286.84375 146.550781 C 290.925781 151.515625 295.34375 156.074219 299.015625 161.382812 C 302.6875 166.621094 305.339844 172.542969 307.722656 178.53125 C 310.03125 184.316406 312.003906 190.167969 313.433594 196.222656 C 314.859375 202.414062 315.746094 208.675781 317.445312 214.800781 C 320.777344 226.570312 325.671875 237.730469 332.472656 247.800781 C 334.648438 251 337.367188 254.808594 335.261719 258.757812 C 333.765625 261.476562 331.042969 263.585938 328.460938 265.492188 C 329.070312 267.261719 329.546875 269.097656 329.753906 271.207031 C 330.160156 275.496094 330.296875 279.851562 331.316406 284.070312 C 333.085938 291.007812 334.714844 297.203125 334.375 304.414062 C 333.96875 313.738281 333.21875 322.785156 334.308594 332.109375 C 335.328125 340.546875 335.871094 348.574219 335.394531 357.082031 C 335.261719 359.394531 336.144531 363.136719 335.054688 365.179688 C 334.105469 366.949219 332.0625 367.21875 330.226562 366.949219 C 326.828125 370.417969 323.769531 374.023438 318.667969 374.570312 C 312.207031 375.25 305.339844 373.546875 299.425781 371.097656 C 293.78125 368.851562 288.953125 365.316406 283.785156 362.050781 C 278.34375 358.578125 272.292969 356.195312 266.921875 352.589844 C 262.707031 349.734375 258.832031 346.601562 255.15625 343.0625 C 253.933594 343.878906 252.710938 344.628906 251.554688 345.515625 C 249.71875 346.941406 248.359375 348.847656 246.863281 350.617188 C 244.824219 353 243.460938 357.011719 239.722656 356.265625 C 238.769531 356.0625 237.886719 355.585938 237.070312 354.972656 C 232.652344 357.898438 226.597656 358.917969 221.5 359.394531 C 215.71875 359.9375 209.9375 357.421875 204.90625 354.699219 C 201.644531 352.929688 198.71875 350.550781 195.589844 348.574219 C 192.328125 346.535156 188.996094 344.492188 185.730469 342.453125 C 179.476562 338.503906 173.289062 334.558594 166.625 331.359375 C 162.816406 329.589844 158.871094 328.027344 154.929688 326.734375 C 145.953125 326.664062 136.976562 327.414062 127.933594 327.140625 C 119.5 326.9375 111.34375 328.503906 102.976562 328.84375 C 101.140625 328.910156 99.238281 329.320312 97.808594 327.890625 C 96.519531 326.527344 96.789062 325.304688 97.675781 324.148438 C 97.335938 323.332031 96.925781 322.515625 96.859375 321.492188 C 96.789062 320.542969 96.925781 319.792969 97.265625 319.113281 C 97.128906 318.089844 97.265625 316.796875 97.46875 316.1875 C 97.742188 315.164062 98.492188 314.554688 99.171875 313.941406 C 99.644531 312.035156 100.800781 310.265625 102.636719 309.925781 C 103.046875 308.566406 103.792969 307.613281 105.359375 307 C 107.195312 306.25 108.554688 305.707031 110.117188 304.484375 C 113.519531 301.691406 118.074219 301.828125 122.222656 301.761719 C 130.652344 301.625 137.316406 302.03125 141.125 301.421875 C 145.953125 300.605469 151.460938 298.496094 156.222656 300.332031 C 159.757812 301.625 162.203125 305.367188 163.699219 308.972656 C 170.023438 309.925781 176.6875 308.90625 183.148438 308.769531 C 182.671875 306.523438 183.691406 304.140625 185.867188 303.394531 C 187.5 302.847656 189.199219 303.191406 190.898438 303.460938 C 192.734375 302.847656 194.777344 302.441406 196.679688 302.167969 C 200.351562 301.691406 204.160156 302.984375 207.695312 303.664062 C 210.6875 304.210938 213.679688 303.460938 216.671875 303.054688 C 216.738281 302.984375 216.875 302.917969 216.941406 302.847656 C 220.683594 299.855469 223.132812 294.820312 226.054688 291.007812 C 227.957031 288.492188 230.066406 286.382812 231.699219 283.660156 C 232.652344 282.027344 233.464844 280.394531 234.417969 278.761719 C 234.894531 278.011719 235.574219 277.128906 236.117188 276.242188 C 233.808594 274.816406 233.332031 272.773438 234.621094 269.644531 C 236.117188 265.96875 238.226562 262.363281 240.128906 258.960938 C 240.878906 257.597656 241.964844 256.304688 242.511719 254.878906 C 243.121094 253.246094 243.054688 251.339844 243.257812 249.636719 C 243.734375 245.625 244.007812 241.609375 243.328125 237.59375 C 242.917969 235.007812 242.917969 231.539062 243.53125 228.542969 C 242.917969 227.726562 242.304688 226.980469 241.832031 226.296875 C 240.605469 224.394531 239.519531 222.488281 238.292969 220.582031 C 235.574219 216.433594 232.378906 212.214844 228.707031 208.878906 C 225.035156 205.542969 221.023438 202.074219 217.691406 198.398438 C 215.105469 195.472656 212.117188 192.886719 209.804688 189.757812 C 208.714844 188.261719 207.695312 186.832031 206.609375 185.335938 C 206.402344 185.0625 206.199219 184.792969 205.925781 184.519531 C 205.519531 184.316406 205.113281 184.109375 204.703125 183.90625 C 202.121094 182.679688 199.535156 181.183594 197.15625 179.621094 C 195.726562 178.667969 194.300781 177.578125 193.007812 176.421875 C 191.917969 175.332031 191.035156 173.902344 190.082031 172.746094 C 189.199219 171.726562 188.453125 170.636719 187.636719 169.550781 C 187.566406 169.414062 187.433594 169.277344 187.363281 169.207031 C 186.34375 169.207031 185.324219 169.277344 184.304688 169.277344 C 182.058594 169.207031 179.816406 169.207031 177.640625 169.074219 C 173.355469 168.867188 169.140625 168.050781 164.925781 167.574219 C 161.386719 167.167969 157.851562 166.621094 154.316406 166.078125 C 151.324219 165.671875 148.128906 165.601562 145.207031 164.921875 C 143.097656 164.445312 141.125 163.695312 139.289062 162.609375 C 127.660156 163.289062 95.292969 164.988281 78.023438 163.832031 C 75.03125 165.195312 71.835938 166.214844 68.570312 166.621094 C 64.898438 167.167969 61.363281 167.914062 57.691406 168.527344 C 54.835938 169.003906 51.980469 169.140625 49.125 168.597656 C 46.402344 168.050781 43.683594 166.417969 41.441406 164.785156 C 40.554688 164.105469 39.671875 163.355469 38.925781 162.472656 C 38.3125 161.722656 38.109375 160.976562 38.039062 160.089844 C 37.769531 159.683594 37.632812 159.136719 37.769531 158.59375 C 37.902344 157.914062 38.789062 157.367188 39.535156 157.164062 C 39.128906 156.484375 38.789062 155.734375 39.128906 154.917969 C 39.535156 153.898438 40.964844 154.171875 41.984375 154.375 C 41.847656 153.488281 41.984375 152.46875 43.207031 152.878906 C 45.179688 153.625 45.316406 156.28125 46.539062 157.777344 C 48.035156 159.546875 50.550781 159.886719 52.726562 160.160156 C 53.273438 159.75 54.15625 159.476562 54.632812 159.207031 C 55.378906 158.796875 56.195312 158.457031 57.011719 158.183594 C 58.03125 157.84375 59.1875 157.777344 60.140625 157.300781 C 61.160156 156.824219 61.769531 156.210938 62.519531 155.464844 C 63.0625 154.917969 63.742188 154.441406 64.355469 154.035156 C 64.695312 153.832031 65.101562 153.488281 65.511719 153.285156 C 65.308594 152.808594 65.101562 152.332031 64.832031 151.925781 C 64.421875 151.246094 63.742188 150.769531 63.199219 150.15625 C 62.246094 149.136719 61.5 147.230469 62.453125 145.9375 C 63.472656 144.507812 65.035156 146.34375 65.917969 147.09375 C 67.550781 148.453125 69.660156 148.796875 71.632812 149.476562 C 73.601562 150.15625 75.371094 151.175781 77.140625 152.265625 C 95.972656 149.679688 116.714844 147.230469 125.214844 146.210938 L 125.214844 146.140625 C 128.816406 145.597656 132.351562 144.917969 135.957031 144.441406 C 138.882812 144.101562 141.875 143.625 144.796875 143.625 C 148.605469 143.625 152.277344 144.101562 156.085938 144.371094 C 160.300781 144.710938 164.449219 145.460938 168.664062 145.800781 C 172.132812 146.074219 175.667969 146.550781 179.136719 146.957031 C 179.203125 146.210938 179.613281 145.527344 180.5625 145.121094 C 181.855469 144.578125 183.351562 144.984375 184.710938 144.847656 C 186.070312 144.710938 186.820312 143.488281 188.113281 143.214844 C 189.539062 142.941406 191.171875 143.285156 192.601562 143.214844 C 194.503906 143.148438 195.933594 141.992188 197.425781 140.902344 C 194.777344 140.015625 192.261719 138.519531 189.949219 136.957031 C 188.589844 136.070312 187.226562 134.914062 186.140625 133.757812 C 185.257812 132.804688 184.847656 131.238281 183.894531 130.421875 C 183.554688 132.261719 183.625 134.914062 185.324219 136.070312 C 183.148438 134.710938 182.46875 133.078125 181.378906 130.761719 C 180.429688 128.722656 178.183594 127.632812 177.027344 125.796875 C 176.824219 125.523438 176.6875 125.183594 176.550781 124.910156 C 176.210938 126.882812 176.824219 128.992188 177.300781 131.101562 C 175.394531 130.152344 174.511719 125.660156 174.375 123.753906 C 174.308594 122.460938 174.035156 121.507812 173.765625 120.214844 C 173.558594 119.058594 173.695312 117.835938 173.628906 116.679688 C 172.0625 117.96875 172.335938 120.285156 172.40625 122.191406 C 171.179688 120.011719 170.160156 117.359375 169.34375 115.042969 C 168.867188 113.75 168.460938 112.253906 168.390625 110.894531 C 168.324219 109.464844 168.734375 108.171875 168.800781 106.8125 C 167.78125 107.898438 166.761719 108.988281 166.011719 110.28125 C 165.0625 111.984375 165.535156 113.886719 165.332031 115.792969 C 164.585938 114.703125 164.449219 113.277344 164.449219 112.050781 C 164.515625 109.398438 165.265625 107.289062 166.554688 105.042969 C 167.507812 103.339844 167.578125 101.4375 167.984375 99.53125 C 167.101562 100.210938 166.351562 101.164062 165.742188 101.980469 C 165.808594 99.667969 165.808594 97.625 166.964844 95.515625 C 168.050781 93.542969 170.023438 91.433594 171.996094 90.003906 C 171.996094 89.050781 172.269531 88.03125 172.675781 87.078125 C 173.832031 84.425781 176.144531 82.859375 177.097656 80.136719 C 178.320312 76.464844 180.902344 76.257812 183.964844 76.53125 C 185.867188 73.128906 189.675781 70.679688 193.484375 71.429688 C 194.570312 70.40625 195.726562 69.589844 197.222656 69.320312 C 199.128906 68.910156 201.234375 69.113281 203.207031 69.046875 C 206.132812 68.976562 209.125 68.910156 212.046875 69.113281 C 215.992188 69.320312 221.769531 71.15625 223.945312 75.101562 C 225.171875 75.375 226.257812 75.917969 227.484375 76.464844 C 231.496094 78.230469 234.621094 81.023438 237.410156 84.425781 C 238.429688 85.648438 239.65625 87.214844 240.605469 88.847656 C 240.539062 87.144531 240.539062 85.445312 240.539062 83.8125 C 240.539062 82.792969 240.539062 81.769531 240.539062 80.75 C 239.316406 79.050781 238.023438 77.414062 237.410156 75.441406 C 235.4375 69.25 234.214844 62.785156 233.535156 56.253906 C 233.125 52.648438 233.195312 48.972656 232.855469 45.367188 C 232.582031 43.054688 231.902344 40.601562 231.5625 38.222656 C 230.679688 36.179688 229.660156 34.207031 228.640625 32.371094 C 228.164062 32.234375 227.6875 31.960938 227.277344 31.824219 C 226.667969 31.554688 226.121094 31.28125 225.648438 30.871094 C 224.558594 29.988281 223.335938 29.375 222.246094 28.492188 C 221.839844 28.152344 221.363281 27.945312 220.957031 27.675781 C 220.207031 27.675781 219.460938 27.605469 218.710938 27.46875 C 217.625 27.335938 216.535156 27.128906 215.449219 27.335938 C 214.359375 27.539062 211.910156 29.375 211.300781 27.675781 C 210.621094 25.972656 212.660156 24.273438 213.882812 23.457031 C 215.515625 22.367188 217.351562 22.230469 219.253906 22.027344 C 220.140625 21.957031 220.957031 21.824219 221.769531 21.484375 C 222.109375 21.347656 222.519531 21.140625 222.859375 20.9375 C 223.199219 20.460938 223.472656 19.984375 223.8125 19.507812 C 224.628906 18.488281 224.96875 17.398438 225.441406 16.175781 C 225.851562 14.949219 226.394531 13.792969 227.144531 12.703125 C 227.414062 12.296875 227.753906 11.886719 227.960938 11.480469 C 228.230469 10.9375 228.433594 10.390625 228.707031 9.914062 C 229.113281 9.234375 229.726562 8.894531 230.40625 8.828125 C 230.40625 8.757812 230.476562 8.621094 230.542969 8.554688 C 230.679688 8.28125 230.816406 8.078125 230.949219 7.738281 C 231.289062 6.785156 231.496094 5.355469 232.3125 4.675781 C 232.71875 4.335938 233.261719 4.199219 233.738281 4.265625 C 234.214844 4.265625 234.554688 4.472656 234.894531 4.675781 C 235.097656 3.789062 235.371094 2.90625 236.117188 2.429688 C 236.664062 2.089844 237.546875 1.75 238.160156 1.886719 C 238.839844 2.089844 238.976562 2.90625 239.042969 3.519531 C 239.179688 5.492188 238.839844 7.535156 239.316406 9.4375 C 239.519531 9.03125 239.859375 8.691406 240.128906 8.28125 C 240.605469 7.464844 240.8125 6.375 241.082031 5.492188 C 241.285156 4.878906 241.898438 3.65625 242.648438 3.449219 L 242.648438 3.382812 C 243.667969 3.042969 244.484375 4.0625 244.617188 5.21875 C 244.753906 6.921875 243.800781 8.351562 243.394531 9.914062 C 242.988281 11.683594 242.714844 13.453125 242.578125 15.289062 C 242.511719 16.242188 242.441406 17.128906 242.375 18.011719 C 242.304688 18.761719 242.375 19.507812 242.238281 20.257812 C 242.101562 21.140625 241.832031 21.890625 241.761719 22.777344 C 241.695312 23.25 241.558594 23.726562 241.355469 24.066406 C 242.78125 28.96875 244.753906 33.730469 246.183594 38.628906 C 247.882812 44.277344 249.105469 49.722656 251.691406 54.960938 C 252.300781 56.320312 252.980469 57.613281 253.59375 58.90625 C 253.933594 59.589844 254.207031 60.199219 254.410156 60.949219 C 257.878906 65.371094 258.898438 71.496094 259.984375 77.007812 C 261.6875 85.648438 263.523438 94.632812 263.863281 103.476562 C 264.066406 107.832031 264 114.023438 263.523438 118.175781 C 265.359375 122.53125 268.691406 126.066406 272.226562 129.675781 Z M 272.226562 129.675781 " fill-opacity="1" fill-rule="nonzero"/></g></svg>